<svg width="60" height="60" viewBox="0 0 60 60" fill="none" xmlns="http://www.w3.org/2000/svg">
<rect width="60" height="60" rx="30" fill="#F04037" fill-opacity="0.1"/>
<g clip-path="url(#clip0_323_124)">
<path d="M46.5727 44.5106L42.8729 40.8108C43.6371 39.6573 44.0833 38.2763 44.0833 36.7917C44.0833 32.771 40.8123 29.5 36.7917 29.5C32.771 29.5 29.5 32.771 29.5 36.7917C29.5 40.8123 32.771 44.0833 36.7917 44.0833C38.2762 44.0833 39.6573 43.6371 40.8108 42.8729L44.5106 46.5727C44.795 46.8571 45.1683 47 45.5417 47C45.915 47 46.2883 46.8571 46.5727 46.5727C47.1429 46.0025 47.1429 45.0808 46.5727 44.5106ZM39.7083 12H19.2917C15.271 12 12 15.271 12 19.2917V22.2083H47V19.2917C47 15.271 43.729 12 39.7083 12ZM18.5625 19.2917C17.355 19.2917 16.375 18.3117 16.375 17.1042C16.375 15.8967 17.355 14.9167 18.5625 14.9167C19.77 14.9167 20.75 15.8967 20.75 17.1042C20.75 18.3117 19.77 19.2917 18.5625 19.2917ZM24.3958 19.2917C23.1883 19.2917 22.2083 18.3117 22.2083 17.1042C22.2083 15.8967 23.1883 14.9167 24.3958 14.9167C25.6033 14.9167 26.5833 15.8967 26.5833 17.1042C26.5833 18.3117 25.6033 19.2917 24.3958 19.2917ZM46.9971 36.9798C46.9971 36.9171 47 36.8544 47 36.7917C47 36.8544 47 36.9171 46.9971 36.9798ZM12 25.125H47V36.7917C47 31.1625 42.4208 26.5833 36.7917 26.5833C31.1625 26.5833 26.5833 31.1625 26.5833 36.7917C26.5833 39.6456 27.7602 42.2298 29.6546 44.0833H19.2917C15.271 44.0833 12 40.8123 12 36.7917V25.125Z" fill="#F04037"/>
</g>
<defs>
<clipPath id="clip0_323_124">
<rect width="35" height="35" fill="white" transform="translate(12 12)"/>
</clipPath>
</defs>
</svg>
