<svg width="60" height="60" viewBox="0 0 60 60" fill="none" xmlns="http://www.w3.org/2000/svg">
<rect width="60" height="60" rx="30" fill="#6767E2" fill-opacity="0.1"/>
<path d="M12 25.1249V38.2499C12.0023 40.1831 12.7713 42.0364 14.1382 43.4034C15.5052 44.7703 17.3585 45.5393 19.2917 45.5416H39.7083C41.6415 45.5393 43.4948 44.7703 44.8618 43.4034C46.2287 42.0364 46.9977 40.1831 47 38.2499V25.1249H12ZM32.4167 39.7083H20.75C20.3632 39.7083 19.9923 39.5546 19.7188 39.2811C19.4453 39.0076 19.2917 38.6367 19.2917 38.2499C19.2917 37.8631 19.4453 37.4922 19.7188 37.2187C19.9923 36.9452 20.3632 36.7916 20.75 36.7916H32.4167C32.8034 36.7916 33.1744 36.9452 33.4479 37.2187C33.7214 37.4922 33.875 37.8631 33.875 38.2499C33.875 38.6367 33.7214 39.0076 33.4479 39.2811C33.1744 39.5546 32.8034 39.7083 32.4167 39.7083ZM38.25 33.8749H20.75C20.3632 33.8749 19.9923 33.7213 19.7188 33.4478C19.4453 33.1743 19.2917 32.8034 19.2917 32.4166C19.2917 32.0298 19.4453 31.6589 19.7188 31.3854C19.9923 31.1119 20.3632 30.9583 20.75 30.9583H38.25C38.6368 30.9583 39.0077 31.1119 39.2812 31.3854C39.5547 31.6589 39.7083 32.0298 39.7083 32.4166C39.7083 32.8034 39.5547 33.1743 39.2812 33.4478C39.0077 33.7213 38.6368 33.8749 38.25 33.8749ZM47 22.2083V20.7499C46.9977 18.8168 46.2287 16.9634 44.8618 15.5965C43.4948 14.2295 41.6415 13.4606 39.7083 13.4583H19.2917C17.3585 13.4606 15.5052 14.2295 14.1382 15.5965C12.7713 16.9634 12.0023 18.8168 12 20.7499L12 22.2083H47ZM26.5833 16.3749C26.8718 16.3749 27.1537 16.4604 27.3935 16.6207C27.6334 16.7809 27.8203 17.0087 27.9307 17.2752C28.041 17.5416 28.0699 17.8349 28.0136 18.1178C27.9574 18.4006 27.8185 18.6605 27.6145 18.8644C27.4106 19.0684 27.1507 19.2073 26.8678 19.2636C26.585 19.3198 26.2917 19.291 26.0253 19.1806C25.7588 19.0702 25.531 18.8833 25.3708 18.6435C25.2105 18.4036 25.125 18.1217 25.125 17.8333C25.125 17.4465 25.2786 17.0755 25.5521 16.8021C25.8256 16.5286 26.1966 16.3749 26.5833 16.3749ZM22.2083 16.3749C22.4968 16.3749 22.7787 16.4604 23.0185 16.6207C23.2584 16.7809 23.4453 17.0087 23.5557 17.2752C23.666 17.5416 23.6949 17.8349 23.6386 18.1178C23.5824 18.4006 23.4435 18.6605 23.2395 18.8644C23.0356 19.0684 22.7757 19.2073 22.4928 19.2636C22.21 19.3198 21.9167 19.291 21.6503 19.1806C21.3838 19.0702 21.156 18.8833 20.9958 18.6435C20.8355 18.4036 20.75 18.1217 20.75 17.8333C20.75 17.4465 20.9036 17.0755 21.1771 16.8021C21.4506 16.5286 21.8216 16.3749 22.2083 16.3749ZM17.8333 16.3749C18.1218 16.3749 18.4037 16.4604 18.6435 16.6207C18.8834 16.7809 19.0703 17.0087 19.1807 17.2752C19.291 17.5416 19.3199 17.8349 19.2636 18.1178C19.2074 18.4006 19.0685 18.6605 18.8645 18.8644C18.6606 19.0684 18.4007 19.2073 18.1178 19.2636C17.835 19.3198 17.5417 19.291 17.2753 19.1806C17.0088 19.0702 16.781 18.8833 16.6208 18.6435C16.4605 18.4036 16.375 18.1217 16.375 17.8333C16.375 17.4465 16.5286 17.0755 16.8021 16.8021C17.0756 16.5286 17.4466 16.3749 17.8333 16.3749Z" fill="#6767E2"/>
</svg>
