<svg xmlns="http://www.w3.org/2000/svg" xmlns:xlink="http://www.w3.org/1999/xlink" width="500" zoomAndPan="magnify" viewBox="0 0 375 374.999991" height="500" preserveAspectRatio="xMidYMid meet" version="1.0"><defs><g/></defs><g fill="#000000" fill-opacity="0.4"><g transform="translate(1.269799, 278.672606)"><g><path d="M 195.890625 -122.59375 L 238 -122.59375 L 238 -27.046875 C 225.675781 -17.234375 211.296875 -9.703125 194.859375 -4.453125 C 178.421875 0.796875 161.523438 3.421875 144.171875 3.421875 C 119.742188 3.421875 97.710938 -1.882812 78.078125 -12.5 C 58.441406 -23.113281 43.03125 -37.78125 31.84375 -56.5 C 20.65625 -75.226562 15.0625 -96.347656 15.0625 -119.859375 C 15.0625 -143.367188 20.65625 -164.484375 31.84375 -183.203125 C 43.03125 -201.929688 58.5 -216.601562 78.25 -227.21875 C 98 -237.832031 120.203125 -243.140625 144.859375 -243.140625 C 164.953125 -243.140625 183.21875 -239.828125 199.65625 -233.203125 C 216.09375 -226.585938 229.90625 -216.890625 241.09375 -204.109375 L 213 -176.703125 C 194.738281 -194.972656 172.707031 -204.109375 146.90625 -204.109375 C 130.019531 -204.109375 115.007812 -200.566406 101.875 -193.484375 C 88.75 -186.410156 78.472656 -176.476562 71.046875 -163.6875 C 63.628906 -150.90625 59.921875 -136.296875 59.921875 -119.859375 C 59.921875 -103.878906 63.628906 -89.492188 71.046875 -76.703125 C 78.472656 -63.921875 88.75 -53.875 101.875 -46.5625 C 115.007812 -39.257812 129.90625 -35.609375 146.5625 -35.609375 C 165.289062 -35.609375 181.734375 -39.71875 195.890625 -47.9375 Z M 195.890625 -122.59375 "/></g></g></g><g fill="#000000" fill-opacity="1"><g transform="translate(-13.864858, 263.53795)"><g><path d="M 195.890625 -122.59375 L 238 -122.59375 L 238 -27.046875 C 225.675781 -17.234375 211.296875 -9.703125 194.859375 -4.453125 C 178.421875 0.796875 161.523438 3.421875 144.171875 3.421875 C 119.742188 3.421875 97.710938 -1.882812 78.078125 -12.5 C 58.441406 -23.113281 43.03125 -37.78125 31.84375 -56.5 C 20.65625 -75.226562 15.0625 -96.347656 15.0625 -119.859375 C 15.0625 -143.367188 20.65625 -164.484375 31.84375 -183.203125 C 43.03125 -201.929688 58.5 -216.601562 78.25 -227.21875 C 98 -237.832031 120.203125 -243.140625 144.859375 -243.140625 C 164.953125 -243.140625 183.21875 -239.828125 199.65625 -233.203125 C 216.09375 -226.585938 229.90625 -216.890625 241.09375 -204.109375 L 213 -176.703125 C 194.738281 -194.972656 172.707031 -204.109375 146.90625 -204.109375 C 130.019531 -204.109375 115.007812 -200.566406 101.875 -193.484375 C 88.75 -186.410156 78.472656 -176.476562 71.046875 -163.6875 C 63.628906 -150.90625 59.921875 -136.296875 59.921875 -119.859375 C 59.921875 -103.878906 63.628906 -89.492188 71.046875 -76.703125 C 78.472656 -63.921875 88.75 -53.875 101.875 -46.5625 C 115.007812 -39.257812 129.90625 -35.609375 146.5625 -35.609375 C 165.289062 -35.609375 181.734375 -39.71875 195.890625 -47.9375 Z M 195.890625 -122.59375 "/></g></g></g><g fill="#000000" fill-opacity="0.4"><g transform="translate(388.655576, 111.198481)"><g><path d="M -195.890625 122.59375 L -238 122.59375 L -238 27.046875 C -225.675781 17.234375 -211.296875 9.703125 -194.859375 4.453125 C -178.421875 -0.796875 -161.523438 -3.421875 -144.171875 -3.421875 C -119.742188 -3.421875 -97.710938 1.882812 -78.078125 12.5 C -58.441406 23.113281 -43.03125 37.78125 -31.84375 56.5 C -20.65625 75.226562 -15.0625 96.347656 -15.0625 119.859375 C -15.0625 143.367188 -20.65625 164.484375 -31.84375 183.203125 C -43.03125 201.929688 -58.5 216.601562 -78.25 227.21875 C -98 237.832031 -120.203125 243.140625 -144.859375 243.140625 C -164.953125 243.140625 -183.21875 239.828125 -199.65625 233.203125 C -216.09375 226.585938 -229.90625 216.890625 -241.09375 204.109375 L -213 176.703125 C -194.738281 194.972656 -172.707031 204.109375 -146.90625 204.109375 C -130.019531 204.109375 -115.007812 200.566406 -101.875 193.484375 C -88.75 186.410156 -78.472656 176.476562 -71.046875 163.6875 C -63.628906 150.90625 -59.921875 136.296875 -59.921875 119.859375 C -59.921875 103.878906 -63.628906 89.492188 -71.046875 76.703125 C -78.472656 63.921875 -88.75 53.875 -101.875 46.5625 C -115.007812 39.257812 -129.90625 35.609375 -146.5625 35.609375 C -165.289062 35.609375 -181.734375 39.71875 -195.890625 47.9375 Z M -195.890625 122.59375 "/></g></g></g><g fill="#000000" fill-opacity="1"><g transform="translate(373.001932, 96.601226)"><g><path d="M -195.890625 122.59375 L -238 122.59375 L -238 27.046875 C -225.675781 17.234375 -211.296875 9.703125 -194.859375 4.453125 C -178.421875 -0.796875 -161.523438 -3.421875 -144.171875 -3.421875 C -119.742188 -3.421875 -97.710938 1.882812 -78.078125 12.5 C -58.441406 23.113281 -43.03125 37.78125 -31.84375 56.5 C -20.65625 75.226562 -15.0625 96.347656 -15.0625 119.859375 C -15.0625 143.367188 -20.65625 164.484375 -31.84375 183.203125 C -43.03125 201.929688 -58.5 216.601562 -78.25 227.21875 C -98 237.832031 -120.203125 243.140625 -144.859375 243.140625 C -164.953125 243.140625 -183.21875 239.828125 -199.65625 233.203125 C -216.09375 226.585938 -229.90625 216.890625 -241.09375 204.109375 L -213 176.703125 C -194.738281 194.972656 -172.707031 204.109375 -146.90625 204.109375 C -130.019531 204.109375 -115.007812 200.566406 -101.875 193.484375 C -88.75 186.410156 -78.472656 176.476562 -71.046875 163.6875 C -63.628906 150.90625 -59.921875 136.296875 -59.921875 119.859375 C -59.921875 103.878906 -63.628906 89.492188 -71.046875 76.703125 C -78.472656 63.921875 -88.75 53.875 -101.875 46.5625 C -115.007812 39.257812 -129.90625 35.609375 -146.5625 35.609375 C -165.289062 35.609375 -181.734375 39.71875 -195.890625 47.9375 Z M -195.890625 122.59375 "/></g></g></g></svg>