<svg width="24" height="24" viewBox="0 0 24 24" fill="none" xmlns="http://www.w3.org/2000/svg">
<g clip-path="url(#clip0_354_80)">
<path d="M11 17.5C11.0013 16.2264 11.3766 14.9813 12.0795 13.9192C12.7823 12.8572 13.7817 12.025 14.9534 11.526C16.1252 11.0271 17.4177 10.8833 18.6705 11.1127C19.9232 11.342 21.081 11.9343 22 12.816V3C22 2.20435 21.6839 1.44129 21.1213 0.87868C20.5587 0.31607 19.7956 0 19 0L7 0C5.67441 0.00158786 4.40356 0.528882 3.46622 1.46622C2.52888 2.40356 2.00159 3.67441 2 5V19C2.00159 20.3256 2.52888 21.5964 3.46622 22.5338C4.40356 23.4711 5.67441 23.9984 7 24H17.5C15.7761 24 14.1228 23.3152 12.9038 22.0962C11.6848 20.8772 11 19.2239 11 17.5ZM7 7C7 6.73478 7.10536 6.48043 7.29289 6.29289C7.48043 6.10536 7.73478 6 8 6H16C16.2652 6 16.5196 6.10536 16.7071 6.29289C16.8946 6.48043 17 6.73478 17 7C17 7.26522 16.8946 7.51957 16.7071 7.70711C16.5196 7.89464 16.2652 8 16 8H8C7.73478 8 7.48043 7.89464 7.29289 7.70711C7.10536 7.51957 7 7.26522 7 7ZM23.707 23.707C23.5195 23.8945 23.2652 23.9998 23 23.9998C22.7348 23.9998 22.4805 23.8945 22.293 23.707L19.886 21.3C19.1732 21.755 18.3456 21.9977 17.5 22C16.61 22 15.74 21.7361 14.9999 21.2416C14.2599 20.7471 13.6831 20.0443 13.3425 19.2221C13.0019 18.3998 12.9128 17.495 13.0865 16.6221C13.2601 15.7492 13.6887 14.9474 14.318 14.318C14.9474 13.6887 15.7492 13.2601 16.6221 13.0865C17.495 12.9128 18.3998 13.0019 19.2221 13.3425C20.0443 13.6831 20.7471 14.2599 21.2416 14.9999C21.7361 15.74 22 16.61 22 17.5C21.9977 18.3456 21.755 19.1732 21.3 19.886L23.707 22.293C23.8945 22.4805 23.9998 22.7348 23.9998 23C23.9998 23.2652 23.8945 23.5195 23.707 23.707Z" fill="white"/>
</g>
<defs>
<clipPath id="clip0_354_80">
<rect width="24" height="24" fill="white"/>
</clipPath>
</defs>
</svg>
