<svg width="65" height="65" viewBox="0 0 65 65" fill="none" xmlns="http://www.w3.org/2000/svg">
<path d="M33.4126 40.524H26.1136V23.9625C28.2498 22.2617 30.7422 20.9563 33.5913 20.0463C36.4405 19.1363 39.3696 18.6813 42.3772 18.6813C46.6117 18.6813 50.4304 19.6008 53.8334 21.4411C57.2371 23.2807 59.9082 25.8231 61.8474 29.0677C63.7866 32.3137 64.7561 35.9747 64.7561 40.05C64.7561 44.1247 63.7866 47.785 61.8474 51.0296C59.9082 54.2755 57.227 56.8187 53.8036 58.659C50.3803 60.4986 46.5318 61.4188 42.258 61.4188C38.7751 61.4188 35.6091 60.8446 32.7599 59.6963C29.9107 58.5493 27.5166 56.8688 25.5774 54.6534L30.447 49.9029C33.6123 53.0697 37.4311 54.6534 41.9032 54.6534C44.8302 54.6534 47.4323 54.0392 49.7086 52.8117C51.9836 51.5855 53.765 49.8637 55.0522 47.6469C56.338 45.4315 56.9805 42.8992 56.9805 40.05C56.9805 37.2801 56.338 34.7864 55.0522 32.5696C53.765 30.3542 51.9836 28.6127 49.7086 27.3452C47.4323 26.0791 44.8499 25.4467 41.9628 25.4467C38.7169 25.4467 35.8663 26.159 33.4126 27.5836V40.524Z" fill="black" fill-opacity="0.4"/>
<path d="M34.1745 27.0537H41.4734V43.6151C39.3372 45.316 36.8449 46.6214 33.9957 47.5314C31.1466 48.4414 28.2175 48.8964 25.2099 48.8964C20.9754 48.8964 17.1567 47.9769 13.7536 46.1366C10.3499 44.2969 7.67885 41.7545 5.73968 38.5099C3.80052 35.264 2.83093 31.603 2.83093 27.5276C2.83093 23.4529 3.80052 19.7926 5.73968 16.548C7.67885 13.3021 10.3601 10.759 13.7834 8.91867C17.2068 7.07903 21.0553 6.15887 25.3291 6.15887C28.812 6.15887 31.978 6.73304 34.8272 7.88137C37.6763 9.02835 40.0705 10.7089 42.0097 12.9243L37.1401 17.6747C33.9747 14.508 30.156 12.9243 25.6838 12.9243C22.7568 12.9243 20.1548 13.5384 17.8784 14.766C15.6034 15.9922 13.822 17.714 12.5349 19.9307C11.2491 22.1462 10.6066 24.6785 10.6066 27.5276C10.6066 30.2976 11.2491 32.7913 12.5349 35.008C13.822 37.2235 15.6034 38.9649 17.8784 40.2324C20.1548 41.4986 22.7372 42.131 25.6243 42.131C28.8702 42.131 31.7207 41.4187 34.1745 39.9941V27.0537Z" fill="black" fill-opacity="0.4"/>
<path d="M31.5511 24.4303H38.8501V40.9918C36.7139 42.6926 34.2215 43.998 31.3724 44.908C28.5232 45.818 25.5942 46.273 22.5865 46.273C18.3521 46.273 14.5333 45.3536 11.1303 43.5132C7.7266 41.6736 5.0555 39.1312 3.11634 35.8866C1.17717 32.6406 0.207588 28.9796 0.207588 24.9043C0.207588 20.8296 1.17717 17.1693 3.11634 13.9247C5.0555 10.6788 7.73675 8.13564 11.1601 6.29533C14.5834 4.45569 18.432 3.53554 22.7057 3.53554C26.1886 3.53554 29.3547 4.1097 32.2038 5.25804C35.053 6.40502 37.4472 8.08554 39.3863 10.301L34.5168 15.0514C31.3514 11.8847 27.5326 10.301 23.0605 10.301C20.1335 10.301 17.5314 10.9151 15.2551 12.1426C12.9801 13.3688 11.1987 15.0906 9.91155 17.3074C8.62577 19.5228 7.98321 22.0551 7.98321 24.9043C7.98321 27.6742 8.62577 30.1679 9.91155 32.3847C11.1987 34.6001 12.9801 36.3416 15.2551 37.6091C17.5314 38.8752 20.1138 39.5076 23.0009 39.5076C26.2469 39.5076 29.0974 38.7953 31.5511 37.3707V24.4303Z" fill="white"/>
<path d="M30.6993 37.9938H23.4003V21.4323C25.5365 19.7315 28.0289 18.4261 30.878 17.5161C33.7272 16.6061 36.6563 16.1511 39.6639 16.1511C43.8984 16.1511 47.7171 17.0706 51.1201 18.9109C54.5238 20.7505 57.1949 23.293 59.1341 26.5375C61.0732 29.7835 62.0428 33.4445 62.0428 37.5198C62.0428 41.5945 61.0732 45.2548 59.1341 48.4994C57.1949 51.7454 54.5137 54.2885 51.0903 56.1288C47.667 57.9684 43.8185 58.8886 39.5447 58.8886C36.0618 58.8886 32.8957 58.3144 30.0466 57.1661C27.1974 56.0191 24.8032 54.3386 22.8641 52.1232L27.7337 47.3728C30.899 50.5395 34.7178 52.1232 39.1899 52.1232C42.1169 52.1232 44.719 51.5091 46.9953 50.2815C49.2703 49.0553 51.0517 47.3335 52.3389 45.1167C53.6247 42.9013 54.2672 40.369 54.2672 37.5198C54.2672 34.7499 53.6247 32.2562 52.3389 30.0394C51.0517 27.824 49.2703 26.0825 46.9953 24.8151C44.719 23.5489 42.1366 22.9165 39.2495 22.9165C36.0036 22.9165 33.153 23.6288 30.6993 25.0534V37.9938Z" fill="white"/>
</svg>
