<svg xmlns="http://www.w3.org/2000/svg" xmlns:xlink="http://www.w3.org/1999/xlink" width="940" zoomAndPan="magnify" viewBox="0 0 705 591.000005" height="788" preserveAspectRatio="xMidYMid meet" version="1.0"><defs><clipPath id="687965c2b3"><path d="M 58.546875 0 L 646.304688 0 L 646.304688 587.753906 L 58.546875 587.753906 Z M 58.546875 0 " clip-rule="nonzero"/></clipPath></defs><g clip-path="url(#687965c2b3)"><path fill="#6a65ff" d="M 352.496094 0 C 190.152344 0 58.546875 131.605469 58.546875 293.949219 C 58.546875 456.289062 190.152344 587.894531 352.496094 587.894531 C 514.839844 587.894531 646.441406 456.289062 646.441406 293.949219 C 646.441406 131.605469 514.839844 0 352.496094 0 Z M 173.335938 153.347656 L 531.273438 153.347656 C 531.679688 153.34375 532.050781 153.457031 532.390625 153.683594 C 532.726562 153.910156 532.96875 154.210938 533.121094 154.585938 C 533.273438 154.964844 533.304688 155.351562 533.21875 155.746094 C 533.132812 156.144531 532.941406 156.480469 532.648438 156.761719 L 412.320312 270.957031 L 412.125 271.152344 L 376.195312 305.25 C 375.335938 306.066406 374.445312 306.839844 373.515625 307.570312 C 372.582031 308.300781 371.621094 308.984375 370.625 309.625 C 369.628906 310.261719 368.605469 310.851562 367.550781 311.390625 C 366.5 311.929688 365.421875 312.417969 364.324219 312.855469 C 363.226562 313.292969 362.105469 313.675781 360.972656 314.003906 C 359.835938 314.335938 358.6875 314.609375 357.523438 314.828125 C 356.359375 315.046875 355.191406 315.210938 354.011719 315.320312 C 352.835938 315.425781 351.652344 315.476562 350.472656 315.46875 C 349.289062 315.464844 348.109375 315.398438 346.929688 315.28125 C 345.753906 315.160156 344.585938 314.984375 343.425781 314.753906 C 342.265625 314.523438 341.121094 314.234375 339.988281 313.894531 C 338.855469 313.550781 337.742188 313.15625 336.648438 312.710938 C 335.550781 312.261719 334.480469 311.761719 333.433594 311.210938 C 332.386719 310.660156 331.371094 310.058594 330.378906 309.410156 C 329.390625 308.761719 328.4375 308.066406 327.511719 307.324219 C 326.589844 306.585938 325.707031 305.800781 324.859375 304.976562 L 291.59375 272.722656 C 291.539062 272.671875 291.484375 272.617188 291.425781 272.5625 L 171.949219 156.746094 C 171.660156 156.464844 171.476562 156.125 171.394531 155.730469 C 171.308594 155.335938 171.34375 154.953125 171.496094 154.578125 C 171.648438 154.203125 171.894531 153.90625 172.230469 153.679688 C 172.5625 153.457031 172.933594 153.34375 173.335938 153.347656 Z M 156.464844 414.800781 L 156.464844 169.148438 C 156.464844 168.75 156.574219 168.386719 156.792969 168.054688 C 157.011719 167.722656 157.304688 167.480469 157.671875 167.324219 C 158.035156 167.171875 158.414062 167.128906 158.804688 167.203125 C 159.195312 167.273438 159.535156 167.449219 159.820312 167.726562 L 273.351562 277.804688 C 273.53125 277.980469 273.671875 278.179688 273.773438 278.40625 C 273.878906 278.632812 273.9375 278.871094 273.949219 279.121094 C 273.960938 279.371094 273.929688 279.613281 273.851562 279.851562 C 273.769531 280.089844 273.652344 280.304688 273.492188 280.496094 L 159.960938 416.074219 C 159.691406 416.394531 159.359375 416.609375 158.957031 416.714844 C 158.550781 416.824219 158.15625 416.808594 157.765625 416.664062 C 157.371094 416.519531 157.058594 416.277344 156.820312 415.9375 C 156.582031 415.59375 156.464844 415.214844 156.464844 414.800781 Z M 534.960938 434.550781 L 170.027344 434.550781 C 169.644531 434.550781 169.289062 434.445312 168.964844 434.238281 C 168.640625 434.03125 168.398438 433.753906 168.238281 433.40625 C 168.074219 433.058594 168.019531 432.695312 168.066406 432.3125 C 168.117188 431.933594 168.265625 431.59375 168.511719 431.300781 L 285.066406 292.117188 C 285.242188 291.910156 285.453125 291.742188 285.699219 291.621094 C 285.945312 291.496094 286.203125 291.429688 286.480469 291.414062 C 286.753906 291.398438 287.019531 291.441406 287.277344 291.539062 C 287.535156 291.632812 287.761719 291.777344 287.957031 291.96875 L 313.464844 316.703125 C 315.914062 319.082031 318.566406 321.207031 321.421875 323.078125 C 324.277344 324.949219 327.289062 326.53125 330.449219 327.820312 C 333.609375 329.113281 336.863281 330.089844 340.214844 330.753906 C 343.5625 331.417969 346.945312 331.753906 350.359375 331.765625 L 350.652344 331.765625 C 354.042969 331.773438 357.402344 331.457031 360.734375 330.820312 C 364.0625 330.183594 367.304688 329.234375 370.453125 327.976562 C 373.601562 326.722656 376.601562 325.175781 379.457031 323.347656 C 382.308594 321.515625 384.964844 319.433594 387.421875 317.09375 L 415.648438 290.292969 C 415.847656 290.105469 416.074219 289.964844 416.328125 289.871094 C 416.585938 289.777344 416.851562 289.738281 417.121094 289.753906 C 417.394531 289.769531 417.652344 289.839844 417.898438 289.960938 C 418.140625 290.082031 418.351562 290.25 418.527344 290.457031 L 536.46875 431.300781 C 536.714844 431.59375 536.863281 431.933594 536.914062 432.3125 C 536.964844 432.691406 536.910156 433.054688 536.75 433.402344 C 536.585938 433.75 536.34375 434.027344 536.023438 434.234375 C 535.699219 434.441406 535.347656 434.546875 534.960938 434.550781 Z M 548.527344 414.800781 C 548.527344 415.214844 548.40625 415.59375 548.167969 415.933594 C 547.929688 416.273438 547.613281 416.515625 547.222656 416.65625 C 546.832031 416.800781 546.433594 416.816406 546.035156 416.707031 C 545.632812 416.601562 545.296875 416.386719 545.03125 416.066406 L 430.25 279 C 430.089844 278.808594 429.96875 278.589844 429.890625 278.351562 C 429.808594 278.113281 429.777344 277.867188 429.792969 277.617188 C 429.808594 277.367188 429.867188 277.125 429.972656 276.898438 C 430.078125 276.667969 430.222656 276.46875 430.40625 276.296875 L 545.195312 167.359375 C 545.480469 167.089844 545.816406 166.921875 546.207031 166.855469 C 546.59375 166.785156 546.96875 166.828125 547.332031 166.984375 C 547.691406 167.140625 547.980469 167.382812 548.199219 167.710938 C 548.414062 168.042969 548.523438 168.402344 548.527344 168.796875 Z M 548.527344 414.800781 " fill-opacity="1" fill-rule="nonzero"/></g></svg>