<svg xmlns="http://www.w3.org/2000/svg" xmlns:xlink="http://www.w3.org/1999/xlink" width="940" zoomAndPan="magnify" viewBox="0 0 705 591.000005" height="788" preserveAspectRatio="xMidYMid meet" version="1.0"><defs><clipPath id="4d74de3dc5"><path d="M 57.5 0 L 647.5 0 L 647.5 590 L 57.5 590 Z M 57.5 0 " clip-rule="nonzero"/></clipPath><clipPath id="77d361a580"><path d="M 647.5 295 C 647.5 299.828125 647.382812 304.652344 647.144531 309.476562 C 646.910156 314.296875 646.554688 319.113281 646.082031 323.914062 C 645.605469 328.71875 645.015625 333.511719 644.308594 338.285156 C 643.597656 343.0625 642.773438 347.816406 641.832031 352.550781 C 640.890625 357.289062 639.832031 361.996094 638.660156 366.679688 C 637.488281 371.363281 636.199219 376.015625 634.796875 380.636719 C 633.398438 385.253906 631.882812 389.839844 630.257812 394.382812 C 628.628906 398.929688 626.894531 403.433594 625.046875 407.894531 C 623.199219 412.351562 621.242188 416.765625 619.175781 421.128906 C 617.113281 425.496094 614.941406 429.804688 612.667969 434.0625 C 610.390625 438.320312 608.011719 442.519531 605.53125 446.660156 C 603.046875 450.800781 600.464844 454.878906 597.785156 458.894531 C 595.101562 462.910156 592.324219 466.855469 589.445312 470.734375 C 586.570312 474.609375 583.601562 478.414062 580.539062 482.148438 C 577.476562 485.878906 574.324219 489.535156 571.082031 493.109375 C 567.839844 496.6875 564.511719 500.183594 561.097656 503.597656 C 557.683594 507.011719 554.1875 510.339844 550.609375 513.582031 C 547.03125 516.824219 543.378906 519.976562 539.648438 523.039062 C 535.914062 526.101562 532.109375 529.070312 528.230469 531.949219 C 524.355469 534.824219 520.40625 537.601562 516.394531 540.285156 C 512.378906 542.96875 508.300781 545.550781 504.160156 548.03125 C 500.019531 550.511719 495.820312 552.890625 491.5625 555.167969 C 487.304688 557.445312 482.992188 559.613281 478.628906 561.679688 C 474.265625 563.742188 469.851562 565.699219 465.390625 567.546875 C 460.929688 569.394531 456.429688 571.128906 451.882812 572.757812 C 447.335938 574.382812 442.753906 575.898438 438.132812 577.300781 C 433.515625 578.699219 428.863281 579.988281 424.179688 581.160156 C 419.496094 582.332031 414.785156 583.390625 410.050781 584.332031 C 405.316406 585.273438 400.5625 586.101562 395.785156 586.808594 C 391.011719 587.515625 386.21875 588.109375 381.414062 588.582031 C 376.609375 589.054688 371.796875 589.410156 366.976562 589.644531 C 362.152344 589.882812 357.328125 590 352.5 590 C 347.671875 590 342.847656 589.882812 338.023438 589.644531 C 333.203125 589.410156 328.390625 589.054688 323.585938 588.582031 C 318.78125 588.109375 313.988281 587.515625 309.214844 586.808594 C 304.4375 586.101562 299.683594 585.273438 294.949219 584.332031 C 290.214844 583.390625 285.503906 582.332031 280.820312 581.160156 C 276.136719 579.988281 271.484375 578.699219 266.867188 577.300781 C 262.246094 575.898438 257.664062 574.382812 253.117188 572.757812 C 248.570312 571.128906 244.070312 569.394531 239.609375 567.546875 C 235.148438 565.699219 230.734375 563.742188 226.371094 561.679688 C 222.007812 559.613281 217.695312 557.445312 213.4375 555.167969 C 209.179688 552.890625 204.980469 550.511719 200.839844 548.03125 C 196.699219 545.550781 192.621094 542.96875 188.605469 540.285156 C 184.59375 537.601562 180.644531 534.824219 176.769531 531.949219 C 172.890625 529.070312 169.085938 526.101562 165.351562 523.039062 C 161.621094 519.976562 157.964844 516.824219 154.390625 513.582031 C 150.8125 510.339844 147.316406 507.011719 143.902344 503.597656 C 140.488281 500.183594 137.160156 496.6875 133.917969 493.109375 C 130.675781 489.535156 127.523438 485.878906 124.460938 482.148438 C 121.398438 478.414062 118.429688 474.609375 115.554688 470.734375 C 112.675781 466.855469 109.898438 462.910156 107.214844 458.894531 C 104.535156 454.878906 101.953125 450.800781 99.46875 446.660156 C 96.988281 442.519531 94.609375 438.320312 92.332031 434.0625 C 90.054688 429.804688 87.886719 425.496094 85.824219 421.128906 C 83.757812 416.765625 81.800781 412.351562 79.953125 407.894531 C 78.105469 403.433594 76.371094 398.929688 74.742188 394.382812 C 73.117188 389.835938 71.601562 385.253906 70.203125 380.636719 C 68.800781 376.015625 67.511719 371.363281 66.339844 366.679688 C 65.167969 361.996094 64.109375 357.289062 63.167969 352.550781 C 62.226562 347.816406 61.402344 343.0625 60.691406 338.285156 C 59.984375 333.511719 59.394531 328.71875 58.917969 323.914062 C 58.445312 319.113281 58.089844 314.296875 57.855469 309.476562 C 57.617188 304.652344 57.5 299.828125 57.5 295 C 57.5 290.171875 57.617188 285.347656 57.855469 280.527344 C 58.089844 275.703125 58.445312 270.890625 58.917969 266.085938 C 59.394531 261.28125 59.984375 256.492188 60.691406 251.714844 C 61.402344 246.941406 62.226562 242.183594 63.167969 237.449219 C 64.109375 232.714844 65.167969 228.003906 66.339844 223.320312 C 67.511719 218.636719 68.800781 213.988281 70.203125 209.367188 C 71.601562 204.746094 73.117188 200.164062 74.742188 195.617188 C 76.371094 191.074219 78.105469 186.570312 79.953125 182.109375 C 81.800781 177.648438 83.757812 173.234375 85.824219 168.871094 C 87.886719 164.507812 90.054688 160.195312 92.332031 155.9375 C 94.609375 151.679688 96.988281 147.480469 99.46875 143.339844 C 101.953125 139.199219 104.535156 135.121094 107.214844 131.105469 C 109.898438 127.09375 112.675781 123.148438 115.554688 119.269531 C 118.429688 115.390625 121.398438 111.585938 124.460938 107.855469 C 127.523438 104.121094 130.675781 100.46875 133.917969 96.890625 C 137.160156 93.3125 140.488281 89.816406 143.902344 86.402344 C 147.316406 82.988281 150.8125 79.660156 154.390625 76.417969 C 157.964844 73.175781 161.621094 70.023438 165.351562 66.960938 C 169.085938 63.898438 172.890625 60.929688 176.769531 58.054688 C 180.644531 55.179688 184.59375 52.398438 188.605469 49.714844 C 192.621094 47.035156 196.699219 44.453125 200.839844 41.96875 C 204.980469 39.488281 209.179688 37.109375 213.4375 34.832031 C 217.695312 32.558594 222.007812 30.386719 226.371094 28.324219 C 230.734375 26.257812 235.148438 24.304688 239.609375 22.457031 C 244.070312 20.609375 248.570312 18.871094 253.117188 17.246094 C 257.664062 15.617188 262.246094 14.105469 266.867188 12.703125 C 271.484375 11.300781 276.136719 10.015625 280.820312 8.839844 C 285.503906 7.667969 290.214844 6.609375 294.949219 5.667969 C 299.683594 4.726562 304.4375 3.902344 309.214844 3.191406 C 313.988281 2.484375 318.78125 1.894531 323.585938 1.421875 C 328.390625 0.949219 333.203125 0.59375 338.023438 0.355469 C 342.847656 0.117188 347.671875 0 352.5 0 C 357.328125 0 362.152344 0.117188 366.976562 0.355469 C 371.796875 0.59375 376.609375 0.949219 381.414062 1.421875 C 386.21875 1.894531 391.011719 2.484375 395.785156 3.191406 C 400.5625 3.902344 405.316406 4.726562 410.050781 5.667969 C 414.785156 6.609375 419.496094 7.667969 424.179688 8.839844 C 428.863281 10.015625 433.515625 11.300781 438.132812 12.703125 C 442.753906 14.105469 447.335938 15.617188 451.882812 17.246094 C 456.429688 18.871094 460.929688 20.609375 465.390625 22.457031 C 469.851562 24.304688 474.265625 26.257812 478.628906 28.324219 C 482.992188 30.386719 487.304688 32.558594 491.5625 34.832031 C 495.820312 37.109375 500.019531 39.488281 504.160156 41.96875 C 508.300781 44.453125 512.378906 47.035156 516.394531 49.714844 C 520.40625 52.398438 524.355469 55.179688 528.230469 58.054688 C 532.109375 60.929688 535.914062 63.898438 539.648438 66.960938 C 543.378906 70.023438 547.03125 73.175781 550.609375 76.417969 C 554.1875 79.660156 557.683594 82.988281 561.097656 86.402344 C 564.511719 89.816406 567.839844 93.3125 571.082031 96.890625 C 574.324219 100.46875 577.476562 104.121094 580.539062 107.855469 C 583.601562 111.585938 586.570312 115.390625 589.445312 119.269531 C 592.324219 123.148438 595.101562 127.09375 597.785156 131.105469 C 600.464844 135.121094 603.046875 139.199219 605.53125 143.339844 C 608.011719 147.480469 610.390625 151.679688 612.667969 155.9375 C 614.941406 160.195312 617.113281 164.507812 619.175781 168.871094 C 621.242188 173.234375 623.199219 177.648438 625.046875 182.109375 C 626.894531 186.570312 628.628906 191.074219 630.257812 195.617188 C 631.882812 200.164062 633.398438 204.746094 634.796875 209.367188 C 636.199219 213.988281 637.488281 218.636719 638.660156 223.320312 C 639.832031 228.003906 640.890625 232.714844 641.832031 237.449219 C 642.773438 242.183594 643.597656 246.941406 644.308594 251.714844 C 645.015625 256.492188 645.605469 261.28125 646.082031 266.085938 C 646.554688 270.890625 646.910156 275.703125 647.144531 280.527344 C 647.382812 285.347656 647.5 290.171875 647.5 295 Z M 647.5 295 " clip-rule="nonzero"/></clipPath><linearGradient x1="0.0499023" gradientTransform="matrix(1.92183, 0, 0, 1.92183, 57.499153, 0.0000199662)" y1="307.049891" x2="307.050596" gradientUnits="userSpaceOnUse" y2="0.0506098" id="a51f74aed5"><stop stop-opacity="1" stop-color="rgb(99.598694%, 75.299072%, 32.499695%)" offset="0"/><stop stop-opacity="1" stop-color="rgb(99.598694%, 75.299072%, 32.499695%)" offset="0.125"/><stop stop-opacity="1" stop-color="rgb(99.598694%, 75.299072%, 32.499695%)" offset="0.140625"/><stop stop-opacity="1" stop-color="rgb(99.583435%, 75.102234%, 32.473755%)" offset="0.144531"/><stop stop-opacity="1" stop-color="rgb(99.569702%, 74.906921%, 32.447815%)" offset="0.148438"/><stop stop-opacity="1" stop-color="rgb(99.514771%, 74.171448%, 32.351685%)" offset="0.152344"/><stop stop-opacity="1" stop-color="rgb(99.459839%, 73.435974%, 32.255554%)" offset="0.15625"/><stop stop-opacity="1" stop-color="rgb(99.404907%, 72.7005%, 32.159424%)" offset="0.160156"/><stop stop-opacity="1" stop-color="rgb(99.349976%, 71.965027%, 32.063293%)" offset="0.164062"/><stop stop-opacity="1" stop-color="rgb(99.295044%, 71.229553%, 31.967163%)" offset="0.167969"/><stop stop-opacity="1" stop-color="rgb(99.240112%, 70.49408%, 31.872559%)" offset="0.171875"/><stop stop-opacity="1" stop-color="rgb(99.185181%, 69.758606%, 31.776428%)" offset="0.175781"/><stop stop-opacity="1" stop-color="rgb(99.130249%, 69.023132%, 31.680298%)" offset="0.179687"/><stop stop-opacity="1" stop-color="rgb(99.073792%, 68.287659%, 31.584167%)" offset="0.183594"/><stop stop-opacity="1" stop-color="rgb(99.01886%, 67.552185%, 31.488037%)" offset="0.1875"/><stop stop-opacity="1" stop-color="rgb(98.963928%, 66.816711%, 31.391907%)" offset="0.191406"/><stop stop-opacity="1" stop-color="rgb(98.908997%, 66.081238%, 31.295776%)" offset="0.195312"/><stop stop-opacity="1" stop-color="rgb(98.854065%, 65.345764%, 31.199646%)" offset="0.199219"/><stop stop-opacity="1" stop-color="rgb(98.799133%, 64.611816%, 31.103516%)" offset="0.203125"/><stop stop-opacity="1" stop-color="rgb(98.744202%, 63.876343%, 31.007385%)" offset="0.207031"/><stop stop-opacity="1" stop-color="rgb(98.68927%, 63.140869%, 30.911255%)" offset="0.210938"/><stop stop-opacity="1" stop-color="rgb(98.634338%, 62.405396%, 30.815125%)" offset="0.214844"/><stop stop-opacity="1" stop-color="rgb(98.579407%, 61.669922%, 30.718994%)" offset="0.21875"/><stop stop-opacity="1" stop-color="rgb(98.524475%, 60.934448%, 30.622864%)" offset="0.222656"/><stop stop-opacity="1" stop-color="rgb(98.469543%, 60.198975%, 30.528259%)" offset="0.226562"/><stop stop-opacity="1" stop-color="rgb(98.414612%, 59.463501%, 30.432129%)" offset="0.230469"/><stop stop-opacity="1" stop-color="rgb(98.35968%, 58.728027%, 30.335999%)" offset="0.234375"/><stop stop-opacity="1" stop-color="rgb(98.303223%, 57.992554%, 30.239868%)" offset="0.238281"/><stop stop-opacity="1" stop-color="rgb(98.248291%, 57.25708%, 30.143738%)" offset="0.242188"/><stop stop-opacity="1" stop-color="rgb(98.193359%, 56.521606%, 30.047607%)" offset="0.246094"/><stop stop-opacity="1" stop-color="rgb(98.138428%, 55.786133%, 29.951477%)" offset="0.25"/><stop stop-opacity="1" stop-color="rgb(98.083496%, 55.050659%, 29.855347%)" offset="0.253906"/><stop stop-opacity="1" stop-color="rgb(98.028564%, 54.315186%, 29.759216%)" offset="0.257812"/><stop stop-opacity="1" stop-color="rgb(97.973633%, 53.579712%, 29.663086%)" offset="0.261719"/><stop stop-opacity="1" stop-color="rgb(97.918701%, 52.845764%, 29.566956%)" offset="0.265625"/><stop stop-opacity="1" stop-color="rgb(97.86377%, 52.110291%, 29.470825%)" offset="0.269531"/><stop stop-opacity="1" stop-color="rgb(97.808838%, 51.374817%, 29.374695%)" offset="0.273438"/><stop stop-opacity="1" stop-color="rgb(97.753906%, 50.639343%, 29.278564%)" offset="0.277344"/><stop stop-opacity="1" stop-color="rgb(97.698975%, 49.90387%, 29.18396%)" offset="0.28125"/><stop stop-opacity="1" stop-color="rgb(97.644043%, 49.168396%, 29.08783%)" offset="0.285156"/><stop stop-opacity="1" stop-color="rgb(97.589111%, 48.432922%, 28.991699%)" offset="0.289062"/><stop stop-opacity="1" stop-color="rgb(97.532654%, 47.697449%, 28.895569%)" offset="0.292969"/><stop stop-opacity="1" stop-color="rgb(97.477722%, 46.961975%, 28.799438%)" offset="0.296875"/><stop stop-opacity="1" stop-color="rgb(97.422791%, 46.226501%, 28.703308%)" offset="0.300781"/><stop stop-opacity="1" stop-color="rgb(97.367859%, 45.491028%, 28.607178%)" offset="0.304688"/><stop stop-opacity="1" stop-color="rgb(97.312927%, 44.755554%, 28.511047%)" offset="0.308594"/><stop stop-opacity="1" stop-color="rgb(97.257996%, 44.020081%, 28.414917%)" offset="0.3125"/><stop stop-opacity="1" stop-color="rgb(97.203064%, 43.284607%, 28.318787%)" offset="0.316406"/><stop stop-opacity="1" stop-color="rgb(97.148132%, 42.549133%, 28.222656%)" offset="0.320312"/><stop stop-opacity="1" stop-color="rgb(97.093201%, 41.81366%, 28.126526%)" offset="0.324219"/><stop stop-opacity="1" stop-color="rgb(97.038269%, 41.079712%, 28.030396%)" offset="0.328125"/><stop stop-opacity="1" stop-color="rgb(96.983337%, 40.344238%, 27.934265%)" offset="0.332031"/><stop stop-opacity="1" stop-color="rgb(96.928406%, 39.608765%, 27.839661%)" offset="0.335938"/><stop stop-opacity="1" stop-color="rgb(96.873474%, 38.873291%, 27.74353%)" offset="0.339844"/><stop stop-opacity="1" stop-color="rgb(96.818542%, 38.137817%, 27.6474%)" offset="0.34375"/><stop stop-opacity="1" stop-color="rgb(96.763611%, 37.402344%, 27.55127%)" offset="0.347656"/><stop stop-opacity="1" stop-color="rgb(96.708679%, 36.66687%, 27.455139%)" offset="0.351562"/><stop stop-opacity="1" stop-color="rgb(96.652222%, 35.931396%, 27.359009%)" offset="0.355469"/><stop stop-opacity="1" stop-color="rgb(96.59729%, 35.195923%, 27.262878%)" offset="0.359375"/><stop stop-opacity="1" stop-color="rgb(96.542358%, 34.460449%, 27.166748%)" offset="0.363281"/><stop stop-opacity="1" stop-color="rgb(96.487427%, 33.724976%, 27.070618%)" offset="0.367187"/><stop stop-opacity="1" stop-color="rgb(96.432495%, 32.989502%, 26.974487%)" offset="0.371094"/><stop stop-opacity="1" stop-color="rgb(96.377563%, 32.254028%, 26.878357%)" offset="0.375"/><stop stop-opacity="1" stop-color="rgb(96.322632%, 31.518555%, 26.782227%)" offset="0.378906"/><stop stop-opacity="1" stop-color="rgb(96.2677%, 30.783081%, 26.686096%)" offset="0.382812"/><stop stop-opacity="1" stop-color="rgb(96.212769%, 30.047607%, 26.589966%)" offset="0.386719"/><stop stop-opacity="1" stop-color="rgb(96.157837%, 29.312134%, 26.495361%)" offset="0.390625"/><stop stop-opacity="1" stop-color="rgb(96.102905%, 28.57666%, 26.399231%)" offset="0.394531"/><stop stop-opacity="1" stop-color="rgb(96.047974%, 27.842712%, 26.303101%)" offset="0.398437"/><stop stop-opacity="1" stop-color="rgb(95.993042%, 27.107239%, 26.20697%)" offset="0.402344"/><stop stop-opacity="1" stop-color="rgb(95.93811%, 26.371765%, 26.11084%)" offset="0.40625"/><stop stop-opacity="1" stop-color="rgb(95.881653%, 25.636292%, 26.014709%)" offset="0.410156"/><stop stop-opacity="1" stop-color="rgb(95.826721%, 24.900818%, 25.918579%)" offset="0.414063"/><stop stop-opacity="1" stop-color="rgb(95.77179%, 24.165344%, 25.822449%)" offset="0.417969"/><stop stop-opacity="1" stop-color="rgb(95.716858%, 23.429871%, 25.726318%)" offset="0.421875"/><stop stop-opacity="1" stop-color="rgb(95.661926%, 22.694397%, 25.630188%)" offset="0.425781"/><stop stop-opacity="1" stop-color="rgb(95.606995%, 21.958923%, 25.534058%)" offset="0.429688"/><stop stop-opacity="1" stop-color="rgb(95.552063%, 21.22345%, 25.437927%)" offset="0.433594"/><stop stop-opacity="1" stop-color="rgb(95.497131%, 20.487976%, 25.341797%)" offset="0.4375"/><stop stop-opacity="1" stop-color="rgb(95.4422%, 19.752502%, 25.245667%)" offset="0.441406"/><stop stop-opacity="1" stop-color="rgb(95.387268%, 19.017029%, 25.151062%)" offset="0.445312"/><stop stop-opacity="1" stop-color="rgb(95.332336%, 18.281555%, 25.054932%)" offset="0.449219"/><stop stop-opacity="1" stop-color="rgb(95.277405%, 17.546082%, 24.958801%)" offset="0.453125"/><stop stop-opacity="1" stop-color="rgb(95.222473%, 16.810608%, 24.862671%)" offset="0.457031"/><stop stop-opacity="1" stop-color="rgb(95.167542%, 16.07666%, 24.766541%)" offset="0.460938"/><stop stop-opacity="1" stop-color="rgb(95.111084%, 15.341187%, 24.67041%)" offset="0.464844"/><stop stop-opacity="1" stop-color="rgb(95.056152%, 14.605713%, 24.57428%)" offset="0.46875"/><stop stop-opacity="1" stop-color="rgb(95.001221%, 13.870239%, 24.478149%)" offset="0.472656"/><stop stop-opacity="1" stop-color="rgb(94.946289%, 13.134766%, 24.382019%)" offset="0.476562"/><stop stop-opacity="1" stop-color="rgb(94.621277%, 12.812805%, 24.882507%)" offset="0.480469"/><stop stop-opacity="1" stop-color="rgb(94.297791%, 12.490845%, 25.382996%)" offset="0.484375"/><stop stop-opacity="1" stop-color="rgb(93.766785%, 12.483215%, 26.33667%)" offset="0.488281"/><stop stop-opacity="1" stop-color="rgb(93.237305%, 12.477112%, 27.29187%)" offset="0.492188"/><stop stop-opacity="1" stop-color="rgb(92.707825%, 12.469482%, 28.245544%)" offset="0.496094"/><stop stop-opacity="1" stop-color="rgb(92.178345%, 12.463379%, 29.199219%)" offset="0.5"/><stop stop-opacity="1" stop-color="rgb(91.648865%, 12.45575%, 30.152893%)" offset="0.503906"/><stop stop-opacity="1" stop-color="rgb(91.119385%, 12.449646%, 31.108093%)" offset="0.507812"/><stop stop-opacity="1" stop-color="rgb(90.588379%, 12.442017%, 32.061768%)" offset="0.511719"/><stop stop-opacity="1" stop-color="rgb(90.058899%, 12.435913%, 33.015442%)" offset="0.515625"/><stop stop-opacity="1" stop-color="rgb(89.529419%, 12.428284%, 33.969116%)" offset="0.519531"/><stop stop-opacity="1" stop-color="rgb(88.999939%, 12.42218%, 34.924316%)" offset="0.523438"/><stop stop-opacity="1" stop-color="rgb(88.468933%, 12.414551%, 35.877991%)" offset="0.527344"/><stop stop-opacity="1" stop-color="rgb(87.939453%, 12.408447%, 36.831665%)" offset="0.53125"/><stop stop-opacity="1" stop-color="rgb(87.409973%, 12.400818%, 37.785339%)" offset="0.535156"/><stop stop-opacity="1" stop-color="rgb(86.880493%, 12.394714%, 38.74054%)" offset="0.539062"/><stop stop-opacity="1" stop-color="rgb(86.351013%, 12.387085%, 39.694214%)" offset="0.542969"/><stop stop-opacity="1" stop-color="rgb(85.821533%, 12.380981%, 40.647888%)" offset="0.546875"/><stop stop-opacity="1" stop-color="rgb(85.290527%, 12.373352%, 41.601562%)" offset="0.550781"/><stop stop-opacity="1" stop-color="rgb(84.761047%, 12.367249%, 42.556763%)" offset="0.554687"/><stop stop-opacity="1" stop-color="rgb(84.231567%, 12.359619%, 43.510437%)" offset="0.558594"/><stop stop-opacity="1" stop-color="rgb(83.702087%, 12.353516%, 44.464111%)" offset="0.5625"/><stop stop-opacity="1" stop-color="rgb(83.171082%, 12.345886%, 45.417786%)" offset="0.566406"/><stop stop-opacity="1" stop-color="rgb(82.641602%, 12.339783%, 46.372986%)" offset="0.570312"/><stop stop-opacity="1" stop-color="rgb(82.112122%, 12.332153%, 47.32666%)" offset="0.574219"/><stop stop-opacity="1" stop-color="rgb(81.582642%, 12.32605%, 48.280334%)" offset="0.578125"/><stop stop-opacity="1" stop-color="rgb(81.053162%, 12.31842%, 49.234009%)" offset="0.582031"/><stop stop-opacity="1" stop-color="rgb(80.523682%, 12.312317%, 50.189209%)" offset="0.585938"/><stop stop-opacity="1" stop-color="rgb(79.992676%, 12.304688%, 51.142883%)" offset="0.589844"/><stop stop-opacity="1" stop-color="rgb(79.463196%, 12.298584%, 52.096558%)" offset="0.59375"/><stop stop-opacity="1" stop-color="rgb(78.933716%, 12.290955%, 53.050232%)" offset="0.597656"/><stop stop-opacity="1" stop-color="rgb(78.404236%, 12.284851%, 54.005432%)" offset="0.601562"/><stop stop-opacity="1" stop-color="rgb(77.874756%, 12.277222%, 54.959106%)" offset="0.605469"/><stop stop-opacity="1" stop-color="rgb(77.345276%, 12.271118%, 55.912781%)" offset="0.609375"/><stop stop-opacity="1" stop-color="rgb(76.81427%, 12.263489%, 56.866455%)" offset="0.613281"/><stop stop-opacity="1" stop-color="rgb(76.28479%, 12.257385%, 57.821655%)" offset="0.617188"/><stop stop-opacity="1" stop-color="rgb(75.75531%, 12.249756%, 58.77533%)" offset="0.621094"/><stop stop-opacity="1" stop-color="rgb(75.22583%, 12.243652%, 59.729004%)" offset="0.625"/><stop stop-opacity="1" stop-color="rgb(74.694824%, 12.236023%, 60.682678%)" offset="0.628906"/><stop stop-opacity="1" stop-color="rgb(74.165344%, 12.229919%, 61.637878%)" offset="0.632813"/><stop stop-opacity="1" stop-color="rgb(73.635864%, 12.22229%, 62.591553%)" offset="0.636719"/><stop stop-opacity="1" stop-color="rgb(73.106384%, 12.216187%, 63.545227%)" offset="0.640625"/><stop stop-opacity="1" stop-color="rgb(72.576904%, 12.208557%, 64.498901%)" offset="0.644531"/><stop stop-opacity="1" stop-color="rgb(72.047424%, 12.202454%, 65.454102%)" offset="0.648438"/><stop stop-opacity="1" stop-color="rgb(71.342468%, 12.489319%, 65.942383%)" offset="0.652344"/><stop stop-opacity="1" stop-color="rgb(70.639038%, 12.77771%, 66.430664%)" offset="0.65625"/><stop stop-opacity="1" stop-color="rgb(69.882202%, 13.154602%, 66.777039%)" offset="0.660156"/><stop stop-opacity="1" stop-color="rgb(69.125366%, 13.53302%, 67.123413%)" offset="0.664062"/><stop stop-opacity="1" stop-color="rgb(68.36853%, 13.909912%, 67.469788%)" offset="0.667969"/><stop stop-opacity="1" stop-color="rgb(67.611694%, 14.28833%, 67.817688%)" offset="0.671875"/><stop stop-opacity="1" stop-color="rgb(66.854858%, 14.665222%, 68.164062%)" offset="0.675781"/><stop stop-opacity="1" stop-color="rgb(66.098022%, 15.042114%, 68.510437%)" offset="0.679688"/><stop stop-opacity="1" stop-color="rgb(65.341187%, 15.419006%, 68.856812%)" offset="0.683594"/><stop stop-opacity="1" stop-color="rgb(64.584351%, 15.797424%, 69.203186%)" offset="0.6875"/><stop stop-opacity="1" stop-color="rgb(63.827515%, 16.174316%, 69.549561%)" offset="0.691406"/><stop stop-opacity="1" stop-color="rgb(63.070679%, 16.552734%, 69.897461%)" offset="0.695312"/><stop stop-opacity="1" stop-color="rgb(62.313843%, 16.929626%, 70.243835%)" offset="0.699219"/><stop stop-opacity="1" stop-color="rgb(61.557007%, 17.308044%, 70.59021%)" offset="0.703125"/><stop stop-opacity="1" stop-color="rgb(60.800171%, 17.684937%, 70.936584%)" offset="0.707031"/><stop stop-opacity="1" stop-color="rgb(60.043335%, 18.061829%, 71.282959%)" offset="0.710937"/><stop stop-opacity="1" stop-color="rgb(59.286499%, 18.438721%, 71.629333%)" offset="0.714844"/><stop stop-opacity="1" stop-color="rgb(58.529663%, 18.817139%, 71.977234%)" offset="0.71875"/><stop stop-opacity="1" stop-color="rgb(57.772827%, 19.194031%, 72.323608%)" offset="0.722656"/><stop stop-opacity="1" stop-color="rgb(57.015991%, 19.572449%, 72.669983%)" offset="0.726562"/><stop stop-opacity="1" stop-color="rgb(56.259155%, 19.949341%, 73.016357%)" offset="0.730469"/><stop stop-opacity="1" stop-color="rgb(55.502319%, 20.326233%, 73.362732%)" offset="0.734375"/><stop stop-opacity="1" stop-color="rgb(54.745483%, 20.703125%, 73.709106%)" offset="0.738281"/><stop stop-opacity="1" stop-color="rgb(53.988647%, 21.081543%, 74.057007%)" offset="0.742187"/><stop stop-opacity="1" stop-color="rgb(53.231812%, 21.458435%, 74.403381%)" offset="0.746094"/><stop stop-opacity="1" stop-color="rgb(52.474976%, 21.836853%, 74.749756%)" offset="0.75"/><stop stop-opacity="1" stop-color="rgb(51.71814%, 22.213745%, 75.09613%)" offset="0.753906"/><stop stop-opacity="1" stop-color="rgb(50.961304%, 22.592163%, 75.444031%)" offset="0.757812"/><stop stop-opacity="1" stop-color="rgb(50.204468%, 22.969055%, 75.790405%)" offset="0.761719"/><stop stop-opacity="1" stop-color="rgb(49.447632%, 23.345947%, 76.13678%)" offset="0.765625"/><stop stop-opacity="1" stop-color="rgb(48.690796%, 23.722839%, 76.483154%)" offset="0.769531"/><stop stop-opacity="1" stop-color="rgb(47.93396%, 24.101257%, 76.829529%)" offset="0.773437"/><stop stop-opacity="1" stop-color="rgb(47.177124%, 24.478149%, 77.175903%)" offset="0.777344"/><stop stop-opacity="1" stop-color="rgb(46.420288%, 24.856567%, 77.523804%)" offset="0.78125"/><stop stop-opacity="1" stop-color="rgb(45.663452%, 25.233459%, 77.870178%)" offset="0.785156"/><stop stop-opacity="1" stop-color="rgb(44.906616%, 25.611877%, 78.216553%)" offset="0.789062"/><stop stop-opacity="1" stop-color="rgb(44.14978%, 25.98877%, 78.562927%)" offset="0.792969"/><stop stop-opacity="1" stop-color="rgb(43.392944%, 26.365662%, 78.909302%)" offset="0.796875"/><stop stop-opacity="1" stop-color="rgb(42.636108%, 26.742554%, 79.255676%)" offset="0.800781"/><stop stop-opacity="1" stop-color="rgb(41.879272%, 27.120972%, 79.603577%)" offset="0.804688"/><stop stop-opacity="1" stop-color="rgb(41.122437%, 27.497864%, 79.949951%)" offset="0.808594"/><stop stop-opacity="1" stop-color="rgb(40.365601%, 27.876282%, 80.296326%)" offset="0.8125"/><stop stop-opacity="1" stop-color="rgb(39.608765%, 28.253174%, 80.6427%)" offset="0.816406"/><stop stop-opacity="1" stop-color="rgb(38.851929%, 28.631592%, 80.989075%)" offset="0.820312"/><stop stop-opacity="1" stop-color="rgb(38.095093%, 29.008484%, 81.335449%)" offset="0.824219"/><stop stop-opacity="1" stop-color="rgb(37.338257%, 29.385376%, 81.68335%)" offset="0.828125"/><stop stop-opacity="1" stop-color="rgb(36.581421%, 29.762268%, 82.029724%)" offset="0.832031"/><stop stop-opacity="1" stop-color="rgb(35.824585%, 30.140686%, 82.376099%)" offset="0.835938"/><stop stop-opacity="1" stop-color="rgb(35.067749%, 30.517578%, 82.722473%)" offset="0.839844"/><stop stop-opacity="1" stop-color="rgb(34.310913%, 30.895996%, 83.068848%)" offset="0.84375"/><stop stop-opacity="1" stop-color="rgb(33.554077%, 31.272888%, 83.415222%)" offset="0.847656"/><stop stop-opacity="1" stop-color="rgb(32.797241%, 31.651306%, 83.763123%)" offset="0.851562"/><stop stop-opacity="1" stop-color="rgb(32.647705%, 31.724548%, 83.830261%)" offset="0.859375"/><stop stop-opacity="1" stop-color="rgb(32.499695%, 31.799316%, 83.898926%)" offset="0.875"/><stop stop-opacity="1" stop-color="rgb(32.499695%, 31.799316%, 83.898926%)" offset="1"/></linearGradient></defs><g clip-path="url(#4d74de3dc5)"><g clip-path="url(#77d361a580)"><path fill="url(#a51f74aed5)" d="M 57.5 0 L 57.5 590 L 647.5 590 L 647.5 0 Z M 57.5 0 " fill-rule="nonzero"/></g></g><path fill="#ffffff" d="M 431.652344 473.035156 L 274.378906 473.035156 C 219.855469 473.035156 175.496094 428.675781 175.496094 374.152344 L 175.496094 216.878906 C 175.496094 162.355469 219.855469 117.996094 274.378906 117.996094 L 431.652344 117.996094 C 486.175781 117.996094 530.535156 162.355469 530.535156 216.878906 L 530.535156 374.152344 C 530.535156 428.675781 486.175781 473.035156 431.652344 473.035156 Z M 274.378906 142.03125 C 233.109375 142.03125 199.53125 175.609375 199.53125 216.878906 L 199.53125 374.152344 C 199.53125 415.421875 233.109375 449 274.378906 449 L 431.652344 449 C 472.917969 449 506.5 415.421875 506.5 374.152344 L 506.5 216.878906 C 506.5 175.609375 472.917969 142.03125 431.652344 142.03125 Z M 274.378906 142.03125 " fill-opacity="1" fill-rule="nonzero"/><path fill="#ffffff" d="M 353.019531 383.457031 C 304.535156 383.457031 265.085938 344.007812 265.085938 295.523438 C 265.085938 247.035156 304.535156 207.589844 353.019531 207.589844 C 401.507812 207.589844 440.957031 247.035156 440.957031 295.523438 C 440.957031 344.007812 401.507812 383.457031 353.019531 383.457031 Z M 353.019531 231.617188 C 317.785156 231.617188 289.121094 260.277344 289.121094 295.515625 C 289.121094 330.753906 317.792969 359.414062 353.019531 359.414062 C 388.25 359.414062 416.917969 330.753906 416.917969 295.515625 C 416.917969 260.277344 388.257812 231.617188 353.019531 231.617188 Z M 353.019531 231.617188 " fill-opacity="1" fill-rule="nonzero"/></svg>