<svg xmlns="http://www.w3.org/2000/svg" xmlns:xlink="http://www.w3.org/1999/xlink" width="940" zoomAndPan="magnify" viewBox="0 0 705 591.000005" height="788" preserveAspectRatio="xMidYMid meet" version="1.0"><defs><clipPath id="609bff2139"><path d="M 57.5 0 L 647.5 0 L 647.5 590 L 57.5 590 Z M 57.5 0 " clip-rule="nonzero"/></clipPath></defs><path fill="#004aad" d="M 195.042969 213.976562 L 238.683594 213.976562 C 239.234375 213.976562 239.777344 214.03125 240.316406 214.140625 C 240.855469 214.246094 241.378906 214.40625 241.886719 214.613281 C 242.394531 214.824219 242.875 215.082031 243.332031 215.386719 C 243.789062 215.695312 244.214844 216.039062 244.601562 216.429688 C 244.992188 216.816406 245.335938 217.242188 245.640625 217.699219 C 245.949219 218.15625 246.207031 218.636719 246.414062 219.144531 C 246.625 219.652344 246.785156 220.175781 246.890625 220.714844 C 247 221.253906 247.054688 221.796875 247.054688 222.347656 L 247.054688 462.378906 C 247.054688 462.925781 247 463.472656 246.890625 464.011719 C 246.785156 464.546875 246.625 465.070312 246.414062 465.578125 C 246.207031 466.085938 245.949219 466.570312 245.640625 467.027344 C 245.335938 467.484375 244.992188 467.90625 244.601562 468.292969 C 244.214844 468.683594 243.789062 469.03125 243.332031 469.335938 C 242.875 469.640625 242.394531 469.898438 241.886719 470.109375 C 241.378906 470.320312 240.855469 470.476562 240.316406 470.585938 C 239.777344 470.691406 239.234375 470.746094 238.683594 470.746094 L 195.042969 470.746094 C 194.496094 470.746094 193.949219 470.691406 193.414062 470.585938 C 192.875 470.476562 192.351562 470.320312 191.84375 470.109375 C 191.335938 469.898438 190.851562 469.640625 190.394531 469.335938 C 189.9375 469.03125 189.515625 468.683594 189.128906 468.292969 C 188.738281 467.90625 188.390625 467.484375 188.085938 467.027344 C 187.78125 466.570312 187.523438 466.085938 187.3125 465.578125 C 187.101562 465.070312 186.945312 464.546875 186.835938 464.011719 C 186.730469 463.472656 186.675781 462.925781 186.675781 462.378906 L 186.675781 222.347656 C 186.675781 221.796875 186.730469 221.253906 186.835938 220.714844 C 186.945312 220.175781 187.101562 219.652344 187.3125 219.144531 C 187.523438 218.636719 187.78125 218.15625 188.085938 217.699219 C 188.390625 217.242188 188.738281 216.816406 189.128906 216.429688 C 189.515625 216.039062 189.9375 215.695312 190.394531 215.386719 C 190.851562 215.082031 191.335938 214.824219 191.84375 214.613281 C 192.351562 214.40625 192.875 214.246094 193.414062 214.140625 C 193.949219 214.03125 194.496094 213.976562 195.042969 213.976562 Z M 195.042969 213.976562 " fill-opacity="1" fill-rule="nonzero"/><path fill="#004aad" d="M 252.015625 154.761719 C 251.949219 134.179688 237.1875 119.253906 216.867188 119.253906 C 196.546875 119.253906 181.21875 134.578125 181.21875 154.902344 C 181.21875 164.359375 184.671875 173.15625 190.929688 179.671875 C 197.367188 186.363281 206.226562 190.050781 215.875 190.050781 C 226.566406 190.050781 236.109375 186.285156 242.75 179.402344 C 248.972656 172.964844 252.257812 164.277344 252.019531 154.902344 C 252.019531 154.855469 252.015625 154.824219 252.015625 154.761719 Z M 252.015625 154.761719 " fill-opacity="1" fill-rule="nonzero"/><path fill="#004aad" d="M 491.050781 230.863281 C 469.320312 211.425781 443.855469 208.523438 430.605469 208.523438 C 410.8125 208.523438 391.953125 213.8125 376.058594 223.820312 C 369.109375 228.195312 362.832031 233.382812 357.226562 239.382812 L 356.132812 221.808594 C 356.097656 221.28125 356.015625 220.761719 355.886719 220.25 C 355.753906 219.738281 355.574219 219.242188 355.351562 218.765625 C 355.125 218.285156 354.859375 217.835938 354.546875 217.40625 C 354.238281 216.980469 353.890625 216.585938 353.503906 216.226562 C 353.117188 215.863281 352.703125 215.542969 352.257812 215.257812 C 351.808594 214.976562 351.339844 214.738281 350.847656 214.542969 C 350.359375 214.351562 349.851562 214.207031 349.335938 214.105469 C 348.816406 214.007812 348.292969 213.960938 347.761719 213.960938 L 309.101562 213.960938 C 308.527344 213.960938 307.957031 214.019531 307.394531 214.136719 C 306.832031 214.257812 306.285156 214.429688 305.757812 214.660156 C 305.230469 214.890625 304.730469 215.171875 304.261719 215.507812 C 303.792969 215.839844 303.359375 216.21875 302.96875 216.640625 C 302.578125 217.0625 302.234375 217.519531 301.9375 218.011719 C 301.640625 218.507812 301.394531 219.023438 301.207031 219.566406 C 301.015625 220.113281 300.882812 220.667969 300.808594 221.238281 C 300.734375 221.8125 300.714844 222.382812 300.757812 222.957031 C 302.132812 241.277344 302.71875 260.519531 302.71875 287.296875 L 302.71875 462.378906 C 302.71875 462.925781 302.773438 463.472656 302.878906 464.011719 C 302.984375 464.546875 303.144531 465.070312 303.355469 465.578125 C 303.566406 466.085938 303.824219 466.570312 304.128906 467.027344 C 304.433594 467.484375 304.78125 467.90625 305.167969 468.292969 C 305.558594 468.683594 305.980469 469.03125 306.4375 469.335938 C 306.894531 469.640625 307.375 469.898438 307.882812 470.109375 C 308.390625 470.320312 308.914062 470.476562 309.453125 470.585938 C 309.992188 470.691406 310.539062 470.746094 311.085938 470.746094 L 354.730469 470.746094 C 355.28125 470.746094 355.824219 470.691406 356.363281 470.585938 C 356.902344 470.476562 357.425781 470.320312 357.933594 470.109375 C 358.441406 469.898438 358.921875 469.640625 359.378906 469.335938 C 359.835938 469.03125 360.257812 468.683594 360.648438 468.292969 C 361.035156 467.90625 361.382812 467.484375 361.6875 467.027344 C 361.992188 466.570312 362.25 466.085938 362.460938 465.578125 C 362.671875 465.070312 362.832031 464.546875 362.9375 464.011719 C 363.046875 463.472656 363.097656 462.925781 363.097656 462.378906 L 363.097656 318.0625 C 363.097656 311.277344 364 304.910156 365.570312 300.585938 C 365.617188 300.453125 365.664062 300.316406 365.707031 300.167969 C 371.605469 280.921875 389.515625 261.453125 416.222656 261.453125 C 432.757812 261.453125 444.625 267.109375 452.507812 278.734375 C 459.621094 289.246094 463.386719 304.90625 463.386719 324.003906 L 463.386719 462.378906 C 463.386719 462.925781 463.441406 463.472656 463.546875 464.011719 C 463.65625 464.546875 463.8125 465.070312 464.023438 465.578125 C 464.234375 466.085938 464.492188 466.570312 464.796875 467.027344 C 465.101562 467.484375 465.449219 467.90625 465.839844 468.292969 C 466.226562 468.683594 466.648438 469.03125 467.105469 469.335938 C 467.5625 469.640625 468.046875 469.898438 468.554688 470.109375 C 469.0625 470.320312 469.585938 470.476562 470.121094 470.585938 C 470.660156 470.691406 471.207031 470.746094 471.753906 470.746094 L 515.398438 470.746094 C 515.949219 470.746094 516.492188 470.691406 517.03125 470.585938 C 517.570312 470.476562 518.09375 470.320312 518.601562 470.109375 C 519.109375 469.898438 519.589844 469.640625 520.046875 469.335938 C 520.503906 469.03125 520.929688 468.683594 521.316406 468.292969 C 521.707031 467.90625 522.050781 467.484375 522.355469 467.027344 C 522.664062 466.570312 522.921875 466.085938 523.128906 465.578125 C 523.339844 465.070312 523.5 464.546875 523.605469 464.011719 C 523.714844 463.472656 523.769531 462.925781 523.769531 462.378906 L 523.769531 319.054688 C 523.769531 298.632812 520.679688 280.535156 514.59375 265.261719 C 509.128906 251.523438 501.207031 239.949219 491.050781 230.863281 Z M 491.050781 230.863281 " fill-opacity="1" fill-rule="nonzero"/><g clip-path="url(#609bff2139)"><path fill="#004aad" d="M 570.691406 0 L 134.308594 0 C 91.953125 0 57.5 34.457031 57.5 76.808594 L 57.5 513.191406 C 57.5 555.542969 91.953125 590 134.308594 590 L 570.691406 590 C 613.042969 590 647.5 555.542969 647.5 513.191406 L 647.5 76.808594 C 647.5 34.457031 613.042969 0 570.691406 0 Z M 593.566406 80.527344 L 593.566406 509.472656 C 593.566406 510.34375 593.523438 511.210938 593.4375 512.078125 C 593.351562 512.945312 593.222656 513.804688 593.050781 514.660156 C 592.882812 515.511719 592.667969 516.355469 592.417969 517.191406 C 592.164062 518.023438 591.871094 518.839844 591.535156 519.644531 C 591.203125 520.449219 590.828125 521.238281 590.417969 522.003906 C 590.007812 522.773438 589.5625 523.519531 589.078125 524.242188 C 588.59375 524.964844 588.074219 525.664062 587.523438 526.335938 C 586.96875 527.011719 586.386719 527.65625 585.769531 528.269531 C 585.152344 528.886719 584.507812 529.46875 583.835938 530.023438 C 583.164062 530.574219 582.464844 531.09375 581.742188 531.578125 C 581.015625 532.0625 580.269531 532.507812 579.503906 532.917969 C 578.734375 533.332031 577.949219 533.703125 577.144531 534.035156 C 576.339844 534.371094 575.523438 534.664062 574.6875 534.917969 C 573.855469 535.171875 573.011719 535.382812 572.160156 535.554688 C 571.304688 535.722656 570.445312 535.851562 569.578125 535.9375 C 568.710938 536.023438 567.84375 536.066406 566.972656 536.070312 L 138.027344 536.070312 C 137.15625 536.066406 136.289062 536.023438 135.421875 535.9375 C 134.554688 535.851562 133.695312 535.722656 132.839844 535.554688 C 131.988281 535.382812 131.144531 535.171875 130.3125 534.917969 C 129.476562 534.664062 128.660156 534.371094 127.855469 534.035156 C 127.050781 533.703125 126.265625 533.332031 125.496094 532.917969 C 124.730469 532.507812 123.984375 532.0625 123.257812 531.578125 C 122.535156 531.09375 121.835938 530.574219 121.164062 530.023438 C 120.492188 529.46875 119.847656 528.886719 119.230469 528.269531 C 118.613281 527.65625 118.03125 527.011719 117.476562 526.335938 C 116.925781 525.664062 116.40625 524.964844 115.921875 524.242188 C 115.4375 523.519531 114.992188 522.773438 114.582031 522.003906 C 114.171875 521.238281 113.796875 520.449219 113.464844 519.644531 C 113.128906 518.839844 112.835938 518.023438 112.582031 517.191406 C 112.332031 516.355469 112.117188 515.511719 111.949219 514.660156 C 111.777344 513.804688 111.648438 512.945312 111.5625 512.078125 C 111.476562 511.210938 111.433594 510.34375 111.433594 509.472656 L 111.433594 80.527344 C 111.433594 79.65625 111.476562 78.789062 111.5625 77.921875 C 111.648438 77.054688 111.777344 76.195312 111.949219 75.34375 C 112.117188 74.488281 112.332031 73.644531 112.582031 72.8125 C 112.835938 71.980469 113.128906 71.160156 113.464844 70.355469 C 113.796875 69.550781 114.171875 68.765625 114.582031 67.996094 C 114.992188 67.230469 115.4375 66.484375 115.921875 65.761719 C 116.40625 65.035156 116.925781 64.335938 117.476562 63.664062 C 118.03125 62.992188 118.613281 62.347656 119.230469 61.730469 C 119.847656 61.117188 120.492188 60.53125 121.164062 59.980469 C 121.835938 59.425781 122.535156 58.90625 123.257812 58.425781 C 123.984375 57.941406 124.730469 57.492188 125.496094 57.082031 C 126.265625 56.671875 127.050781 56.300781 127.855469 55.964844 C 128.660156 55.632812 129.476562 55.339844 130.3125 55.085938 C 131.144531 54.832031 131.988281 54.621094 132.839844 54.449219 C 133.695312 54.277344 134.554688 54.148438 135.421875 54.0625 C 136.289062 53.976562 137.15625 53.933594 138.027344 53.933594 L 566.972656 53.933594 C 567.84375 53.933594 568.710938 53.976562 569.578125 54.0625 C 570.445312 54.148438 571.304688 54.277344 572.160156 54.449219 C 573.011719 54.621094 573.855469 54.832031 574.6875 55.085938 C 575.523438 55.339844 576.339844 55.632812 577.144531 55.964844 C 577.949219 56.300781 578.734375 56.671875 579.503906 57.082031 C 580.269531 57.492188 581.015625 57.941406 581.742188 58.425781 C 582.464844 58.90625 583.164062 59.425781 583.835938 59.980469 C 584.507812 60.53125 585.152344 61.117188 585.769531 61.730469 C 586.386719 62.347656 586.96875 62.992188 587.523438 63.664062 C 588.074219 64.335938 588.59375 65.035156 589.078125 65.761719 C 589.5625 66.484375 590.007812 67.230469 590.417969 67.996094 C 590.828125 68.765625 591.203125 69.550781 591.535156 70.355469 C 591.871094 71.160156 592.164062 71.980469 592.417969 72.8125 C 592.667969 73.644531 592.882812 74.488281 593.050781 75.34375 C 593.222656 76.195312 593.351562 77.054688 593.4375 77.921875 C 593.523438 78.789062 593.566406 79.65625 593.566406 80.527344 Z M 593.566406 80.527344 " fill-opacity="1" fill-rule="nonzero"/></g></svg>