<svg xmlns="http://www.w3.org/2000/svg" xmlns:xlink="http://www.w3.org/1999/xlink" width="940" zoomAndPan="magnify" viewBox="0 0 705 591.000005" height="788" preserveAspectRatio="xMidYMid meet" version="1.0"><defs><clipPath id="7526df60f3"><path d="M 60 0 L 646.742188 0 L 646.742188 587 L 60 587 Z M 60 0 " clip-rule="nonzero"/></clipPath></defs><g clip-path="url(#7526df60f3)"><path fill="#1ba553" d="M 352.28125 0.539062 C 188.875 1.085938 58.273438 133.957031 60.40625 297.355469 C 60.503906 305.566406 60.945312 313.753906 61.734375 321.925781 C 62.523438 330.097656 63.652344 338.222656 65.128906 346.300781 C 66.601562 354.375 68.414062 362.375 70.566406 370.300781 C 72.714844 378.222656 75.195312 386.042969 78.003906 393.757812 C 80.816406 401.46875 83.945312 409.050781 87.398438 416.5 C 90.847656 423.953125 94.605469 431.242188 98.671875 438.375 C 102.738281 445.507812 107.097656 452.453125 111.75 459.21875 C 116.402344 465.984375 121.332031 472.539062 126.539062 478.886719 C 127.359375 479.886719 128.097656 480.945312 128.757812 482.058594 C 129.417969 483.171875 129.992188 484.328125 130.476562 485.527344 C 130.964844 486.722656 131.359375 487.953125 131.664062 489.210938 C 131.964844 490.46875 132.171875 491.742188 132.285156 493.03125 C 132.398438 494.316406 132.414062 495.609375 132.335938 496.898438 C 132.253906 498.191406 132.078125 499.46875 131.808594 500.734375 C 131.535156 502 131.171875 503.234375 130.714844 504.445312 C 130.257812 505.65625 129.714844 506.828125 129.082031 507.957031 L 103.851562 553.171875 C 96.855469 565.707031 108.253906 580.527344 122.164062 576.988281 L 207.625 555.226562 C 210.605469 554.472656 213.625 554.25 216.683594 554.5625 C 219.742188 554.878906 222.65625 555.707031 225.421875 557.054688 C 234.839844 561.628906 244.480469 565.6875 254.339844 569.226562 C 264.199219 572.765625 274.21875 575.761719 284.398438 578.21875 C 294.582031 580.675781 304.867188 582.582031 315.253906 583.929688 C 325.640625 585.277344 336.070312 586.066406 346.539062 586.289062 C 510.832031 590.003906 645.683594 458.722656 646.199219 294.386719 C 646.707031 131.847656 514.824219 -0.0117188 352.28125 0.539062 Z M 353.289062 550.273438 C 349.085938 550.273438 344.886719 550.171875 340.691406 549.964844 C 336.492188 549.757812 332.300781 549.449219 328.117188 549.035156 C 323.9375 548.625 319.765625 548.109375 315.609375 547.492188 C 311.449219 546.878906 307.3125 546.160156 303.1875 545.339844 C 299.066406 544.519531 294.964844 543.597656 290.890625 542.578125 C 286.8125 541.554688 282.761719 540.433594 278.742188 539.214844 C 274.71875 537.996094 270.730469 536.675781 266.773438 535.261719 C 262.816406 533.84375 258.894531 532.332031 255.011719 530.726562 C 251.128906 529.117188 247.289062 527.414062 243.488281 525.617188 C 239.6875 523.820312 235.933594 521.929688 232.230469 519.949219 C 228.523438 517.96875 224.867188 515.898438 221.261719 513.738281 C 217.65625 511.574219 214.105469 509.328125 210.613281 506.992188 C 207.117188 504.65625 203.679688 502.238281 200.304688 499.734375 C 196.929688 497.230469 193.617188 494.644531 190.367188 491.980469 C 187.121094 489.3125 183.9375 486.566406 180.824219 483.746094 C 177.710938 480.921875 174.667969 478.027344 171.695312 475.054688 C 168.722656 472.082031 165.824219 469.039062 163.003906 465.925781 C 160.179688 462.808594 157.433594 459.628906 154.769531 456.378906 C 152.101562 453.128906 149.519531 449.816406 147.015625 446.441406 C 144.511719 443.066406 142.089844 439.628906 139.753906 436.136719 C 137.421875 432.640625 135.171875 429.089844 133.011719 425.484375 C 130.851562 421.878906 128.78125 418.222656 126.796875 414.519531 C 124.816406 410.8125 122.929688 407.058594 121.132812 403.257812 C 119.335938 399.457031 117.632812 395.617188 116.023438 391.734375 C 114.414062 387.851562 112.902344 383.929688 111.488281 379.972656 C 110.070312 376.015625 108.753906 372.027344 107.53125 368.003906 C 106.3125 363.980469 105.191406 359.933594 104.171875 355.855469 C 103.148438 351.777344 102.230469 347.675781 101.410156 343.554688 C 100.589844 339.433594 99.871094 335.292969 99.253906 331.136719 C 98.636719 326.976562 98.121094 322.808594 97.710938 318.625 C 97.296875 314.441406 96.988281 310.25 96.785156 306.054688 C 96.578125 301.855469 96.472656 297.65625 96.472656 293.453125 C 96.472656 151.613281 211.457031 36.628906 353.292969 36.628906 C 494.578125 36.628906 609.214844 150.722656 610.101562 291.800781 C 610.996094 433.355469 494.847656 550.273438 353.289062 550.273438 Z M 353.289062 550.273438 " fill-opacity="1" fill-rule="nonzero"/></g><path fill="#1ba553" d="M 307.390625 168.59375 L 307.507812 168.828125 L 322.828125 199.207031 C 323.648438 200.839844 324.335938 202.53125 324.890625 204.273438 C 325.441406 206.019531 325.847656 207.796875 326.113281 209.609375 C 326.375 211.417969 326.492188 213.238281 326.464844 215.066406 C 326.433594 216.898438 326.257812 218.714844 325.9375 220.515625 C 325.613281 222.316406 325.148438 224.078125 324.542969 225.804688 C 323.9375 227.53125 323.195312 229.199219 322.320312 230.804688 C 321.441406 232.410156 320.445312 233.9375 319.320312 235.382812 C 318.199219 236.828125 316.96875 238.171875 315.628906 239.421875 C 314.296875 240.65625 313.070312 241.992188 311.953125 243.429688 C 310.832031 244.863281 309.835938 246.378906 308.960938 247.972656 C 308.085938 249.566406 307.34375 251.21875 306.734375 252.933594 C 306.125 254.648438 305.65625 256.398438 305.328125 258.191406 C 305 259.980469 304.820312 261.78125 304.78125 263.601562 C 304.742188 265.421875 304.851562 267.230469 305.105469 269.03125 C 305.355469 270.832031 305.753906 272.601562 306.289062 274.339844 C 306.828125 276.078125 307.5 277.761719 308.308594 279.390625 C 317.503906 297.855469 333.433594 323.308594 357.746094 341.671875 C 359.097656 342.699219 360.523438 343.621094 362.015625 344.4375 C 363.507812 345.253906 365.054688 345.953125 366.652344 346.539062 C 368.25 347.121094 369.878906 347.585938 371.546875 347.925781 C 373.214844 348.265625 374.894531 348.480469 376.59375 348.570312 C 378.292969 348.660156 379.988281 348.621094 381.683594 348.457031 C 383.375 348.289062 385.046875 348 386.695312 347.585938 C 388.347656 347.171875 389.957031 346.636719 391.523438 345.980469 C 393.09375 345.324219 394.605469 344.554688 396.0625 343.675781 L 405.925781 337.671875 C 408.136719 336.324219 410.472656 335.246094 412.933594 334.433594 C 415.390625 333.621094 417.910156 333.09375 420.488281 332.859375 C 423.066406 332.621094 425.640625 332.675781 428.203125 333.027344 C 430.769531 333.375 433.265625 334.011719 435.683594 334.929688 L 474.894531 349.835938 C 475.933594 350.234375 476.953125 350.679688 477.953125 351.175781 C 478.949219 351.671875 479.921875 352.214844 480.863281 352.808594 C 481.808594 353.398438 482.722656 354.035156 483.601562 354.714844 C 484.484375 355.398438 485.332031 356.121094 486.140625 356.882812 C 486.953125 357.648438 487.722656 358.449219 488.453125 359.292969 C 489.1875 360.132812 489.875 361.003906 490.519531 361.914062 C 491.167969 362.820312 491.765625 363.757812 492.320312 364.726562 C 492.875 365.691406 493.378906 366.683594 493.835938 367.699219 C 494.292969 368.714844 494.699219 369.75 495.054688 370.808594 C 495.40625 371.863281 495.710938 372.933594 495.957031 374.019531 C 496.207031 375.105469 496.402344 376.203125 496.546875 377.308594 C 496.6875 378.414062 496.773438 379.523438 496.808594 380.636719 C 496.839844 381.75 496.816406 382.863281 496.742188 383.972656 C 496.664062 385.085938 496.535156 386.191406 496.347656 387.289062 C 496.164062 388.386719 495.925781 389.472656 495.632812 390.550781 C 495.339844 391.625 494.996094 392.683594 494.601562 393.722656 C 494.144531 394.921875 493.621094 396.089844 493.035156 397.230469 L 482.167969 418.289062 C 481.730469 419.140625 481.257812 419.96875 480.746094 420.78125 C 480.238281 421.589844 479.695312 422.378906 479.121094 423.140625 C 478.542969 423.90625 477.9375 424.644531 477.300781 425.359375 C 476.664062 426.070312 475.996094 426.757812 475.300781 427.414062 C 474.605469 428.070312 473.882812 428.695312 473.136719 429.292969 C 472.386719 429.890625 471.613281 430.453125 470.820312 430.984375 C 470.023438 431.515625 469.207031 432.011719 468.367188 432.472656 C 467.53125 432.933594 466.675781 433.363281 465.800781 433.75 C 464.925781 434.140625 464.039062 434.492188 463.136719 434.808594 C 462.230469 435.125 461.316406 435.402344 460.390625 435.640625 C 459.464844 435.875 458.527344 436.074219 457.585938 436.234375 C 456.640625 436.394531 455.695312 436.511719 454.738281 436.589844 C 453.785156 436.671875 452.832031 436.710938 451.875 436.707031 C 450.917969 436.707031 449.964844 436.664062 449.011719 436.582031 C 448.054688 436.5 447.109375 436.378906 446.164062 436.21875 C 445.222656 436.054688 444.289062 435.855469 443.363281 435.613281 C 381.78125 419.679688 235.019531 364.300781 223.195312 196.835938 C 223.078125 195.183594 223.082031 193.53125 223.207031 191.878906 C 223.332031 190.226562 223.574219 188.589844 223.9375 186.972656 C 224.300781 185.355469 224.78125 183.773438 225.375 182.226562 C 225.96875 180.679688 226.671875 179.1875 227.484375 177.742188 C 228.296875 176.296875 229.210938 174.921875 230.222656 173.609375 C 231.238281 172.296875 232.339844 171.070312 233.535156 169.917969 C 234.726562 168.769531 236 167.710938 237.347656 166.75 C 238.695312 165.785156 240.105469 164.921875 241.578125 164.164062 L 261.578125 153.894531 C 262.566406 153.382812 263.582031 152.921875 264.617188 152.511719 C 265.652344 152.101562 266.707031 151.746094 267.777344 151.4375 C 268.851562 151.132812 269.933594 150.878906 271.03125 150.679688 C 272.125 150.480469 273.230469 150.332031 274.339844 150.242188 C 275.449219 150.148438 276.5625 150.113281 277.675781 150.132812 C 278.789062 150.148438 279.902344 150.222656 281.007812 150.347656 C 282.117188 150.476562 283.214844 150.65625 284.304688 150.890625 C 285.390625 151.125 286.46875 151.414062 287.527344 151.753906 C 288.589844 152.09375 289.632812 152.484375 290.652344 152.929688 C 291.675781 153.371094 292.675781 153.863281 293.648438 154.402344 C 294.621094 154.945312 295.570312 155.53125 296.484375 156.164062 C 297.402344 156.800781 298.285156 157.476562 299.132812 158.199219 C 299.984375 158.917969 300.796875 159.679688 301.574219 160.480469 C 302.347656 161.28125 303.082031 162.117188 303.773438 162.988281 C 304.46875 163.859375 305.117188 164.765625 305.71875 165.703125 C 306.324219 166.636719 306.882812 167.601562 307.390625 168.59375 Z M 307.390625 168.59375 " fill-opacity="1" fill-rule="nonzero"/></svg>