<svg width="105" height="105" viewBox="0 0 105 105" fill="none" xmlns="http://www.w3.org/2000/svg">
<g filter="url(#filter0_d_323_138)">
<circle cx="70.9298" cy="1.16279" r="1.16279" fill="white"/>
<circle cx="70.9298" cy="15.1169" r="1.16279" fill="white"/>
<circle cx="70.9298" cy="29.0703" r="1.16279" fill="white"/>
<circle cx="70.9298" cy="43.0227" r="1.16279" fill="white"/>
<circle cx="70.9298" cy="56.9774" r="1.16279" fill="white"/>
<circle cx="70.9298" cy="70.9303" r="1.16279" fill="white"/>
<circle cx="70.9298" cy="84.8841" r="1.16279" fill="white"/>
<circle cx="70.9298" cy="98.8372" r="1.16279" fill="white"/>
<circle cx="84.8819" cy="1.16279" r="1.16279" fill="white"/>
<circle cx="84.8819" cy="15.1169" r="1.16279" fill="white"/>
<circle cx="84.8819" cy="29.0703" r="1.16279" fill="white"/>
<circle cx="84.8819" cy="43.0227" r="1.16279" fill="white"/>
<circle cx="84.8819" cy="56.9774" r="1.16279" fill="white"/>
<circle cx="84.8819" cy="70.9303" r="1.16279" fill="white"/>
<circle cx="84.8819" cy="84.8841" r="1.16279" fill="white"/>
<circle cx="84.8819" cy="98.8372" r="1.16279" fill="white"/>
<circle cx="98.8372" cy="1.16279" r="1.16279" fill="white"/>
<circle cx="98.8372" cy="15.1169" r="1.16279" fill="white"/>
<circle cx="98.8372" cy="29.0703" r="1.16279" fill="white"/>
<circle cx="98.8372" cy="43.0227" r="1.16279" fill="white"/>
<circle cx="98.8372" cy="56.9774" r="1.16279" fill="white"/>
<circle cx="98.8372" cy="70.9303" r="1.16279" fill="white"/>
<circle cx="98.8372" cy="84.8841" r="1.16279" fill="white"/>
<circle cx="98.8372" cy="98.8372" r="1.16279" fill="white"/>
<circle cx="1.16285" cy="1.1631" r="1.16279" fill="white"/>
<circle cx="1.16279" cy="15.1169" r="1.16279" fill="white"/>
<circle cx="1.16279" cy="29.0703" r="1.16279" fill="white"/>
<circle cx="1.16279" cy="43.0227" r="1.16279" fill="white"/>
<circle cx="1.16279" cy="56.9774" r="1.16279" fill="white"/>
<circle cx="1.16279" cy="70.9303" r="1.16279" fill="white"/>
<circle cx="1.16279" cy="84.8841" r="1.16279" fill="white"/>
<circle cx="1.16279" cy="98.8372" r="1.16279" fill="white"/>
<circle cx="15.1165" cy="1.16279" r="1.16279" fill="white"/>
<circle cx="15.1165" cy="15.1169" r="1.16279" fill="white"/>
<circle cx="15.1165" cy="29.0703" r="1.16279" fill="white"/>
<circle cx="15.1165" cy="43.0227" r="1.16279" fill="white"/>
<circle cx="15.1165" cy="56.9774" r="1.16279" fill="white"/>
<circle cx="15.1165" cy="70.9303" r="1.16279" fill="white"/>
<circle cx="15.1165" cy="84.8841" r="1.16279" fill="white"/>
<circle cx="15.1165" cy="98.8372" r="1.16279" fill="white"/>
<circle cx="29.0687" cy="1.16279" r="1.16279" fill="white"/>
<circle cx="29.0687" cy="15.1169" r="1.16279" fill="white"/>
<circle cx="29.0687" cy="29.0703" r="1.16279" fill="white"/>
<circle cx="29.0687" cy="43.0227" r="1.16279" fill="white"/>
<circle cx="29.0687" cy="56.9774" r="1.16279" fill="white"/>
<circle cx="29.0687" cy="70.9303" r="1.16279" fill="white"/>
<circle cx="29.0687" cy="84.8841" r="1.16279" fill="white"/>
<circle cx="29.0687" cy="98.8372" r="1.16279" fill="white"/>
<circle cx="43.024" cy="1.16279" r="1.16279" fill="white"/>
<circle cx="43.024" cy="15.1169" r="1.16279" fill="white"/>
<circle cx="43.024" cy="29.0703" r="1.16279" fill="white"/>
<circle cx="43.024" cy="43.0227" r="1.16279" fill="white"/>
<circle cx="43.024" cy="56.9774" r="1.16279" fill="white"/>
<circle cx="43.024" cy="70.9303" r="1.16279" fill="white"/>
<circle cx="43.024" cy="84.8841" r="1.16279" fill="white"/>
<circle cx="43.024" cy="98.8372" r="1.16279" fill="white"/>
<circle cx="56.9777" cy="1.16279" r="1.16279" fill="white"/>
<circle cx="56.9777" cy="15.1169" r="1.16279" fill="white"/>
<circle cx="56.9777" cy="29.0703" r="1.16279" fill="white"/>
<circle cx="56.9777" cy="43.0227" r="1.16279" fill="white"/>
<circle cx="56.9777" cy="56.9774" r="1.16279" fill="white"/>
<circle cx="56.9777" cy="70.9303" r="1.16279" fill="white"/>
<circle cx="56.9777" cy="84.8841" r="1.16279" fill="white"/>
<circle cx="56.9777" cy="98.8372" r="1.16279" fill="white"/>
</g>
<defs>
<filter id="filter0_d_323_138" x="0" y="0" width="105" height="105" filterUnits="userSpaceOnUse" color-interpolation-filters="sRGB">
<feFlood flood-opacity="0" result="BackgroundImageFix"/>
<feColorMatrix in="SourceAlpha" type="matrix" values="0 0 0 0 0 0 0 0 0 0 0 0 0 0 0 0 0 0 127 0" result="hardAlpha"/>
<feOffset dx="4" dy="4"/>
<feGaussianBlur stdDeviation="0.5"/>
<feComposite in2="hardAlpha" operator="out"/>
<feColorMatrix type="matrix" values="0 0 0 0 0 0 0 0 0 0 0 0 0 0 0 0 0 0 1 0"/>
<feBlend mode="normal" in2="BackgroundImageFix" result="effect1_dropShadow_323_138"/>
<feBlend mode="normal" in="SourceGraphic" in2="effect1_dropShadow_323_138" result="shape"/>
</filter>
</defs>
</svg>
