<svg width="60" height="60" viewBox="0 0 60 60" fill="none" xmlns="http://www.w3.org/2000/svg">
<path d="M0 30C0 13.4315 13.4315 0 30 0C46.5685 0 60 13.4315 60 30C60 46.5685 46.5685 60 30 60C13.4315 60 0 46.5685 0 30Z" fill="#5AFE83" fill-opacity="0.1"/>
<g clip-path="url(#clip0_323_131)">
<path d="M30 36.6667C28.6815 36.6667 27.3925 36.2757 26.2962 35.5431C25.1999 34.8106 24.3454 33.7694 23.8408 32.5512C23.3362 31.3331 23.2042 29.9926 23.4614 28.6994C23.7187 27.4062 24.3536 26.2183 25.286 25.286C26.2183 24.3536 27.4062 23.7187 28.6994 23.4614C29.9926 23.2042 31.333 23.3362 32.5512 23.8408C33.7694 24.3454 34.8106 25.1999 35.5431 26.2962C36.2757 27.3925 36.6667 28.6815 36.6667 30C36.6667 31.7681 35.9643 33.4638 34.714 34.7141C33.4638 35.9643 31.7681 36.6667 30 36.6667ZM19.4717 36.6667H11.6667C11.2246 36.6667 10.8007 36.4911 10.4882 36.1785C10.1756 35.866 10 35.442 10 35C10.0158 32.6068 10.8862 30.2981 12.4543 28.4901C14.0223 26.6822 16.1848 25.494 18.5517 25.14C18.8267 25.1015 19.107 25.1323 19.3671 25.2296C19.6272 25.327 19.8589 25.4878 20.041 25.6974C20.2232 25.9071 20.35 26.1589 20.4101 26.43C20.4702 26.7012 20.4616 26.983 20.385 27.25C20.1296 28.1443 20 29.0699 20 30C20.0005 31.4829 20.3343 32.9468 20.9767 34.2833C21.0975 34.537 21.1522 34.8171 21.1358 35.0977C21.1193 35.3782 21.0322 35.65 20.8825 35.8878C20.7328 36.1256 20.5255 36.3217 20.2797 36.4579C20.0339 36.5941 19.7577 36.6659 19.4767 36.6667H19.4717ZM38.3333 50H21.6667C21.2246 50 20.8007 49.8244 20.4882 49.5119C20.1756 49.1993 20 48.7754 20 48.3333C20 45.6812 21.0536 43.1376 22.9289 41.2623C24.8043 39.3869 27.3478 38.3333 30 38.3333C32.6522 38.3333 35.1957 39.3869 37.0711 41.2623C38.9464 43.1376 40 45.6812 40 48.3333C40 48.7754 39.8244 49.1993 39.5118 49.5119C39.1993 49.8244 38.7754 50 38.3333 50ZM40 23.3333C38.6815 23.3333 37.3925 22.9423 36.2962 22.2098C35.1999 21.4773 34.3454 20.4361 33.8408 19.2179C33.3362 17.9997 33.2042 16.6593 33.4614 15.3661C33.7187 14.0729 34.3536 12.885 35.286 11.9526C36.2183 11.0203 37.4062 10.3853 38.6994 10.1281C39.9926 9.87087 41.333 10.0029 42.5512 10.5075C43.7694 11.0121 44.8106 11.8665 45.5431 12.9629C46.2757 14.0592 46.6667 15.3481 46.6667 16.6667C46.6667 18.4348 45.9643 20.1305 44.714 21.3807C43.4638 22.631 41.7681 23.3333 40 23.3333ZM20 23.3333C18.6815 23.3333 17.3925 22.9423 16.2962 22.2098C15.1999 21.4773 14.3454 20.4361 13.8408 19.2179C13.3362 17.9997 13.2042 16.6593 13.4614 15.3661C13.7187 14.0729 14.3536 12.885 15.286 11.9526C16.2183 11.0203 17.4062 10.3853 18.6994 10.1281C19.9926 9.87087 21.333 10.0029 22.5512 10.5075C23.7694 11.0121 24.8106 11.8665 25.5431 12.9629C26.2757 14.0592 26.6667 15.3481 26.6667 16.6667C26.6667 18.4348 25.9643 20.1305 24.714 21.3807C23.4638 22.631 21.7681 23.3333 20 23.3333ZM48.3333 36.6667H40.5283C40.2473 36.6659 39.9711 36.5941 39.7253 36.4579C39.4795 36.3217 39.2722 36.1256 39.1225 35.8878C38.9728 35.65 38.8857 35.3782 38.8692 35.0977C38.8528 34.8171 38.9075 34.537 39.0283 34.2833C39.669 32.9464 40.0011 31.4825 40 30C39.9973 29.0695 39.8649 28.1439 39.6067 27.25C39.5297 26.9823 39.521 26.6995 39.5815 26.4276C39.6419 26.1557 39.7696 25.9032 39.9528 25.6933C40.1359 25.4835 40.3688 25.3229 40.6301 25.2262C40.8913 25.1295 41.1727 25.0999 41.4483 25.14C43.8152 25.494 45.9777 26.6822 47.5457 28.4901C49.1138 30.2981 49.9842 32.6068 50 35C50 35.442 49.8244 35.866 49.5118 36.1785C49.1993 36.4911 48.7754 36.6667 48.3333 36.6667Z" fill="#5AFE83"/>
</g>
<defs>
<clipPath id="clip0_323_131">
<rect width="40" height="40" fill="white" transform="translate(10 10)"/>
</clipPath>
</defs>
</svg>
